<?xml version="1.0" standalone="no"?>
<!DOCTYPE svg PUBLIC "-//W3C//DTD SVG 20010904//EN"
 "http://www.w3.org/TR/2001/REC-SVG-20010904/DTD/svg10.dtd">
<svg version="1.0" xmlns="http://www.w3.org/2000/svg"
 width="600.000000pt" height="796.000000pt" viewBox="0 0 600.000000 796.000000"
 preserveAspectRatio="xMidYMid meet">

<g transform="translate(0.000000,796.000000) scale(0.100000,-0.100000)"
fill="#000000" stroke="none">
<path d="M1300 7250 l0 -230 35 0 35 0 0 100 0 100 40 0 40 0 0 -100 0 -100
35 0 35 0 0 230 0 230 -35 0 -35 0 0 -100 0 -100 -40 0 -40 0 0 100 0 100 -35
0 -35 0 0 -230z"/>
<path d="M1625 7448 c-20 -119 -65 -404 -65 -415 0 -19 56 -17 64 3 3 9 6 27
6 40 0 24 3 25 48 22 47 -3 47 -3 50 -40 3 -37 5 -38 41 -38 l38 0 -24 148
c-13 81 -29 183 -36 227 l-12 80 -52 3 c-52 3 -52 3 -58 -30z m71 -165 c19
-127 20 -125 -18 -121 -18 2 -32 6 -32 11 1 4 8 52 15 107 7 55 14 98 17 95 3
-3 11 -44 18 -92z"/>
<path d="M1840 7249 l0 -231 81 4 c74 3 83 6 105 31 21 24 24 38 24 103 0 114
-18 138 -105 146 -29 3 -30 5 -33 56 l-3 52 60 0 61 0 0 35 0 35 -95 0 -95 0
0 -231z m135 -83 c0 -67 -1 -70 -27 -77 -15 -4 -29 -4 -32 -1 -3 3 -6 39 -6
79 l0 74 33 -3 32 -3 0 -69z"/>
<path d="M2123 7456 l-28 -24 -3 -176 -3 -176 30 -30 c25 -26 37 -30 81 -30
97 0 117 52 108 283 -5 120 -5 121 -37 149 -42 37 -107 39 -148 4z m96 -45
c12 -7 15 -40 16 -148 2 -149 -4 -183 -33 -183 -37 0 -42 19 -42 170 0 164 10
192 59 161z"/>
<path d="M2350 7250 l0 -230 35 0 35 0 0 84 0 83 49 7 c74 10 91 36 91 138 0
44 -5 88 -11 100 -16 29 -70 48 -139 48 l-60 0 0 -230z m135 85 l0 -70 -32 -3
-33 -3 0 76 0 76 33 -3 32 -3 0 -70z"/>
<path d="M2700 7250 l0 -230 30 0 29 0 3 148 3 147 24 -147 25 -148 33 0 c38
0 35 -7 59 160 9 63 18 117 20 119 2 2 4 -59 4 -137 l0 -142 35 0 35 0 0 230
0 230 -49 0 -49 0 -11 -62 c-5 -35 -16 -102 -22 -150 -7 -49 -15 -88 -19 -88
-3 0 -17 68 -30 150 l-23 150 -49 0 -48 0 0 -230z"/>
<path d="M3180 7465 c0 -10 -11 -15 -35 -15 -46 0 -80 -17 -94 -47 -6 -13 -11
-73 -11 -133 0 -99 2 -111 23 -135 17 -20 35 -28 70 -32 l47 -6 0 -38 c0 -38
1 -39 35 -39 34 0 35 1 35 40 0 38 2 40 30 40 46 0 86 25 99 61 16 46 14 193
-4 234 -15 37 -46 55 -96 55 -19 0 -29 5 -29 15 0 10 -11 15 -35 15 -24 0 -35
-5 -35 -15z m-5 -190 c0 -116 -4 -124 -47 -103 -15 7 -18 23 -18 108 0 102 4
111 45 107 19 -2 20 -9 20 -112z m129 99 c12 -11 16 -36 16 -97 0 -45 -4 -87
-8 -93 -4 -6 -19 -13 -34 -16 l-28 -5 0 113 c0 106 1 114 19 114 11 0 27 -7
35 -16z"/>
<path d="M3429 7458 c-1 -20 0 -238 1 -391 l0 -48 33 3 32 3 3 81 3 81 41 6
c65 9 90 41 95 123 3 53 0 77 -14 104 -24 46 -54 60 -130 60 -58 0 -63 -2 -64
-22z m131 -67 c14 -27 13 -104 -2 -119 -7 -7 -22 -12 -35 -12 -22 0 -23 3 -23
75 0 73 1 75 25 75 14 0 29 -8 35 -19z"/>
<path d="M3799 7451 c-23 -23 -29 -39 -29 -70 0 -39 2 -41 29 -41 25 0 30 5
35 34 7 39 37 56 61 36 18 -15 20 -91 3 -108 -7 -7 -22 -12 -35 -12 -19 0 -23
-5 -23 -30 0 -23 5 -30 19 -30 33 0 51 -28 51 -79 0 -50 -12 -71 -42 -71 -21
0 -38 29 -38 64 0 22 -4 26 -30 26 -28 0 -30 -2 -30 -41 0 -75 31 -108 103
-109 41 0 53 5 78 29 26 26 29 36 29 91 0 58 -11 97 -33 111 -5 4 0 20 13 37
19 26 22 39 18 88 -6 74 -36 104 -104 104 -37 0 -51 -6 -75 -29z"/>
<path d="M4130 7249 l0 -231 86 3 c79 4 87 6 110 32 39 46 32 174 -12 200 -11
6 -9 12 6 27 16 16 20 33 20 83 -1 36 -6 69 -14 80 -18 24 -68 37 -138 37
l-58 0 0 -231z m138 107 c3 -52 -6 -66 -45 -66 -21 0 -23 4 -23 61 l0 60 33
-3 c31 -3 32 -5 35 -52z m-7 -136 c15 -9 19 -22 19 -65 0 -57 -11 -71 -55 -70
-17 0 -20 8 -23 59 -2 32 -1 65 2 72 6 17 30 18 57 4z"/>
<path d="M4612 7455 c-8 -16 -23 -28 -42 -31 -23 -5 -30 -12 -30 -30 0 -20 5
-24 30 -24 l30 0 0 -175 0 -175 35 0 35 0 0 230 0 230 -23 0 c-16 0 -28 -9
-35 -25z"/>
<path d="M4030 6510 c0 -5 18 -10 40 -10 22 0 40 5 40 10 0 6 -18 10 -40 10
-22 0 -40 -4 -40 -10z"/>
<path d="M2854 6481 c-2 -2 -4 -53 -4 -113 0 -101 1 -108 20 -108 16 0 20 7
20 38 0 32 5 39 33 52 26 12 33 21 35 52 5 55 -10 75 -58 80 -23 2 -43 2 -46
-1z m66 -66 c0 -24 -5 -35 -15 -35 -10 0 -15 11 -15 35 0 24 5 35 15 35 10 0
15 -11 15 -35z"/>
<path d="M2987 6483 c-4 -3 -7 -55 -7 -115 l0 -108 45 0 c33 0 45 4 45 15 0
10 -10 15 -31 15 -28 0 -30 2 -27 33 2 24 8 33 26 35 31 5 29 32 -3 32 -21 0
-25 5 -25 30 0 27 3 30 30 30 22 0 30 5 30 18 0 13 -10 18 -38 20 -21 1 -41
-1 -45 -5z"/>
<path d="M3120 6395 c0 -76 -3 -97 -15 -101 -21 -8 -19 -34 3 -34 34 0 42 21
42 107 0 82 0 83 25 83 25 0 25 0 25 -95 0 -78 3 -95 15 -95 12 0 15 19 15
109 0 121 0 121 -77 121 l-33 0 0 -95z"/>
<path d="M3266 6483 c-3 -3 -6 -55 -6 -115 l0 -108 39 0 c50 0 63 17 59 77 -3
45 -5 49 -35 58 -30 8 -33 13 -33 46 0 37 -11 55 -24 42z m59 -154 c0 -24 -5
-35 -17 -37 -14 -3 -18 4 -18 31 0 18 3 37 7 41 15 14 28 -2 28 -35z"/>
<path d="M3393 6484 c-9 -4 -13 -37 -13 -115 l0 -109 50 0 c38 0 50 4 50 15 0
10 -10 15 -30 15 -28 0 -30 3 -30 35 0 28 4 35 20 35 11 0 20 7 20 15 0 8 -9
15 -20 15 -16 0 -20 7 -20 30 0 25 4 30 24 30 24 0 43 16 33 27 -8 8 -70 13
-84 7z"/>
<path d="M3690 6375 c0 -94 3 -115 14 -115 11 0 16 14 18 47 2 36 7 49 21 51
14 3 17 -4 17 -47 0 -44 3 -51 20 -51 19 0 20 7 20 110 0 103 -1 110 -20 110
-17 0 -20 -7 -20 -45 0 -38 -3 -45 -20 -45 -17 0 -20 7 -20 44 0 30 -5 46 -15
50 -13 5 -15 -11 -15 -109z"/>
<path d="M3956 6483 c-3 -4 -6 -55 -6 -115 0 -87 3 -108 14 -108 12 0 15 22
18 110 2 76 -1 111 -9 114 -6 3 -14 2 -17 -1z"/>
<path d="M4098 6483 c-11 -3 -24 -26 -35 -61 l-18 -57 -3 58 c-2 42 -7 57 -17
57 -12 0 -15 -21 -15 -110 0 -103 1 -110 20 -110 14 0 22 10 29 38 29 113 29
112 30 35 1 -58 4 -73 16 -73 12 0 15 19 15 115 0 63 -1 114 -2 114 -2 -1 -11
-3 -20 -6z"/>
<path d="M3536 6470 c-38 -12 -46 -25 -46 -83 0 -61 14 -87 45 -87 18 0 25 -5
25 -20 0 -13 7 -20 20 -20 13 0 20 7 20 20 0 15 7 20 25 20 31 0 45 26 45 87
0 59 -7 71 -51 83 -39 11 -44 11 -83 0z m24 -85 c0 -42 -3 -55 -15 -55 -12 0
-15 13 -15 55 0 42 3 55 15 55 12 0 15 -13 15 -55z m70 0 c0 -42 -3 -55 -15
-55 -12 0 -15 13 -15 55 0 42 3 55 15 55 12 0 15 -13 15 -55z"/>
<path d="M3830 6370 l0 -110 38 0 c49 0 62 14 62 66 0 46 -19 74 -51 74 -16 0
-19 7 -19 40 0 29 -4 40 -15 40 -12 0 -15 -19 -15 -110z m65 -40 c0 -25 -5
-36 -17 -38 -15 -3 -18 4 -18 38 0 34 3 41 18 38 12 -2 17 -13 17 -38z"/>
<path d="M5087 6326 c-37 -39 -77 -85 -90 -103 -12 -18 -32 -34 -44 -37 -11
-3 -29 -9 -39 -13 -12 -4 -15 -3 -10 6 5 7 18 16 31 21 12 5 32 28 43 52 l22
43 -33 32 c-47 47 -93 64 -136 49 -59 -19 -90 -85 -66 -139 6 -16 4 -17 -19
-11 -25 6 -26 5 -26 -39 0 -42 2 -45 31 -51 18 -3 38 -1 45 5 10 8 21 5 45
-15 17 -14 37 -26 45 -26 30 0 92 -61 99 -96 6 -36 14 -41 33 -22 7 7 12 8 12
2 0 -5 -12 -17 -25 -27 -20 -14 -24 -15 -19 -2 4 10 0 15 -10 15 -9 0 -16 -4
-16 -10 0 -5 -5 -10 -11 -10 -5 0 -7 5 -4 10 12 19 -22 10 -40 -10 -14 -16
-16 -23 -7 -32 7 -7 12 -19 12 -28 0 -16 36 -44 48 -36 9 5 32 -20 25 -28 -4
-3 45 -6 108 -7 79 -1 106 -4 89 -10 -19 -7 -16 -7 14 -3 108 15 218 100 272
209 27 55 29 69 29 165 -1 63 -6 117 -14 135 l-13 30 -45 -49 c-24 -27 -53
-67 -64 -89 l-20 -39 -25 23 c-13 12 -26 20 -29 17 -3 -2 0 -31 6 -62 6 -32 8
-60 5 -64 -8 -8 -43 26 -67 65 -18 29 -19 38 -9 63 13 32 9 62 -18 119 -8 20
-16 42 -16 50 -2 33 -36 14 -99 -53z m68 -63 c3 -21 8 -47 10 -59 3 -11 -2
-29 -10 -40 -8 -10 -15 -27 -15 -36 0 -10 -9 -22 -21 -28 -19 -11 -19 -8 5 37
l26 48 -33 -37 -34 -38 -20 23 c-11 12 -21 36 -21 54 -1 26 8 40 45 73 25 22
49 40 54 40 4 0 11 -17 14 -37z m-198 -185 c-3 -8 -6 -5 -6 6 -1 11 2 17 5 13
3 -3 4 -12 1 -19z m312 -82 c-2 -2 -15 -9 -29 -15 -24 -11 -24 -11 -6 3 16 13
49 24 35 12z m-189 -41 c14 -19 14 -19 -2 -6 -10 7 -18 18 -18 24 0 6 1 8 3 6
1 -2 9 -13 17 -24z m-30 1 c0 -3 -4 -8 -10 -11 -5 -3 -10 -1 -10 4 0 6 5 11
10 11 6 0 10 -2 10 -4z m236 -71 c-5 -18 -13 -25 -31 -25 -37 0 -38 16 -3 45
34 29 45 22 34 -20z m44 41 c0 -3 -4 -8 -10 -11 -5 -3 -10 -1 -10 4 0 6 5 11
10 11 6 0 10 -2 10 -4z"/>
<path d="M3160 6045 c0 -94 3 -115 14 -115 10 0 16 14 18 42 2 34 7 44 23 46
35 7 45 23 45 73 0 54 -15 69 -69 69 l-31 0 0 -115z m65 44 c0 -24 -5 -34 -15
-34 -16 0 -25 37 -16 62 10 26 31 8 31 -28z"/>
<path d="M3292 6148 c-18 -18 -16 -192 2 -207 24 -20 69 -9 83 19 18 36 17
150 -3 178 -17 24 -62 30 -82 10z m53 -104 c0 -64 -3 -79 -15 -79 -12 0 -16
16 -18 69 -3 76 2 100 21 93 8 -2 12 -28 12 -83z"/>
<path d="M3430 6065 c0 -76 -3 -97 -15 -101 -22 -9 -18 -34 4 -34 35 0 51 38
51 122 0 71 2 78 20 78 19 0 20 -7 20 -101 0 -90 2 -100 18 -97 15 3 17 16 17
113 l0 110 -57 3 -58 3 0 -96z"/>
<path d="M3570 6045 c0 -107 1 -115 19 -115 16 0 23 14 38 72 l18 72 5 -69 c3
-40 10 -70 17 -72 8 -3 13 24 15 95 4 121 2 132 -22 132 -14 0 -22 -11 -30
-42 -21 -82 -29 -87 -29 -20 -1 48 -4 62 -16 62 -12 0 -15 -19 -15 -115z"/>
<path d="M3710 6045 c0 -108 1 -115 20 -115 17 0 20 7 20 40 0 22 4 40 8 40 5
0 14 -18 21 -40 8 -29 17 -40 31 -40 21 0 23 -6 -27 116 -2 7 7 35 21 63 25
48 25 51 7 51 -13 0 -25 -14 -37 -42 l-19 -43 -3 43 c-3 34 -7 42 -23 42 -18
0 -19 -8 -19 -115z"/>
<path d="M2835 6109 c-4 -6 -5 -13 -2 -16 7 -7 27 6 27 18 0 12 -17 12 -25 -2z"/>
<path d="M2780 6065 c-7 -9 -10 -18 -7 -22 8 -7 37 15 37 28 0 14 -16 11 -30
-6z"/>
<path d="M4940 6021 c0 -6 4 -12 10 -16 5 -3 6 -13 3 -23 -4 -12 -3 -14 5 -7
12 11 5 55 -9 55 -5 0 -9 -4 -9 -9z"/>
<path d="M2722 6000 c-7 -11 -9 -20 -4 -20 10 0 32 22 32 32 0 15 -15 8 -28
-12z"/>
<path d="M4910 6003 c0 -13 -4 -23 -10 -23 -5 0 -10 -8 -10 -17 0 -14 3 -13
20 5 16 17 18 26 11 40 -9 15 -10 15 -11 -5z"/>
<path d="M2682 5939 c-14 -22 -15 -29 -4 -29 11 0 33 38 24 44 -4 3 -13 -4
-20 -15z"/>
<path d="M2646 5864 c-9 -23 -7 -36 3 -30 12 8 21 46 11 46 -4 0 -11 -7 -14
-16z"/>
<path d="M2616 5784 c-6 -24 -2 -43 8 -33 11 10 17 59 8 59 -5 0 -13 -12 -16
-26z"/>
<path d="M2600 5698 c0 -25 3 -29 10 -18 13 20 13 50 0 50 -5 0 -10 -15 -10
-32z"/>
<path d="M1400 5666 c0 -12 11 -16 41 -16 52 0 48 24 -4 28 -28 2 -37 -1 -37
-12z"/>
<path d="M2595 5638 c-4 -10 -4 -26 0 -35 8 -17 8 -17 12 0 3 9 3 25 0 35 -4
16 -4 16 -12 0z"/>
<path d="M720 5525 c0 -94 3 -115 14 -115 10 0 16 14 18 42 2 34 7 44 23 46
34 7 45 23 45 67 0 50 -22 75 -68 75 l-32 0 0 -115z m68 36 c-2 -15 -10 -27
-20 -29 -14 -3 -18 4 -18 31 0 18 3 37 7 40 12 13 34 -16 31 -42z"/>
<path d="M833 5623 c3 -10 16 -51 28 -92 20 -68 21 -75 5 -86 -24 -18 -20 -35
9 -35 30 0 37 13 64 115 12 44 24 88 27 98 5 14 1 18 -12 15 -13 -2 -23 -22
-34 -68 l-17 -65 -19 65 c-14 45 -26 66 -38 68 -13 3 -17 -1 -13 -15z"/>
<path d="M980 5582 c0 -63 11 -82 49 -85 18 -1 21 -8 21 -44 0 -36 3 -43 20
-43 19 0 20 7 20 116 0 105 -2 115 -17 112 -14 -2 -19 -15 -21 -56 -2 -36 -7
-52 -17 -52 -10 0 -15 16 -17 52 -2 41 -7 54 -20 56 -16 3 -18 -5 -18 -56z"/>
<path d="M1120 5535 c0 -58 0 -108 -1 -112 0 -5 7 -9 15 -11 13 -3 16 7 16 47
0 44 3 51 20 51 17 0 20 -7 20 -50 0 -44 3 -50 20 -50 20 0 21 5 18 112 -3 98
-5 113 -20 116 -15 3 -18 -4 -18 -47 0 -44 -3 -51 -20 -51 -17 0 -20 7 -20 50
0 38 -4 50 -15 50 -12 0 -15 -18 -15 -105z"/>
<path d="M1267 5622 c-13 -14 -17 -38 -17 -96 0 -96 9 -116 55 -116 46 0 55
20 55 118 0 64 -4 82 -18 95 -24 22 -55 21 -75 -1z m51 -100 c2 -68 0 -82 -13
-82 -12 0 -15 15 -15 86 0 64 3 85 13 82 8 -3 13 -32 15 -86z"/>
<path d="M1387 5633 c-4 -3 -7 -55 -7 -115 0 -100 1 -108 19 -108 15 0 23 13
36 58 9 31 18 62 20 67 2 6 4 -21 4 -58 1 -60 3 -68 19 -65 15 3 17 17 17 113
0 104 -1 110 -21 113 -18 3 -24 -6 -40 -60 l-19 -63 -3 63 c-3 58 -9 72 -25
55z"/>
<path d="M2606 5538 c8 -28 12 -33 20 -25 9 8 -6 47 -17 47 -6 0 -7 -10 -3
-22z"/>
<path d="M5010 5524 c-135 -36 -237 -136 -276 -269 -28 -98 -7 -265 33 -265
13 0 133 -59 164 -82 14 -9 23 -7 48 14 30 26 50 31 164 44 49 5 57 4 57 -10
0 -10 -4 -14 -10 -11 -5 3 -10 -1 -10 -10 0 -10 5 -13 12 -9 7 4 8 3 4 -5 -4
-6 -2 -18 4 -26 11 -13 3 -15 -56 -17 l-69 -1 55 -6 c43 -5 49 -8 30 -13 -14
-4 28 -6 93 -4 66 1 122 7 128 13 6 6 13 29 16 51 4 32 1 44 -17 62 l-22 22
56 -4 c51 -3 56 -1 67 22 15 32 23 138 15 184 -6 33 -8 35 -32 26 -43 -17 -51
-11 -16 11 17 12 32 26 32 32 0 22 -58 112 -96 150 -52 52 -106 83 -179 101
-72 19 -123 19 -195 0z m225 -424 c-4 -6 12 -8 42 -5 64 7 17 -10 -52 -18 -33
-4 -42 -3 -25 3 l25 8 -25 2 c-24 2 -23 3 5 10 17 4 31 8 33 9 2 0 0 -3 -3 -9z
m-272 -45 c109 0 141 -9 64 -17 -79 -9 -171 -2 -202 15 l-30 17 30 -7 c17 -5
78 -8 138 -8z"/>
<path d="M2630 5468 c0 -17 18 -44 24 -37 8 7 -5 49 -15 49 -5 0 -9 -6 -9 -12z"/>
<path d="M2662 5398 c2 -6 10 -14 16 -16 7 -2 10 2 6 12 -7 18 -28 22 -22 4z"/>
<path d="M550 5194 c0 -88 3 -115 13 -112 7 3 14 29 16 69 l4 64 11 -65 c8
-47 16 -66 28 -68 14 -3 18 8 25 60 l8 63 5 -60 c4 -44 9 -60 20 -60 12 0 16
20 18 113 l3 112 -25 0 c-28 0 -32 -9 -42 -95 -8 -68 -17 -56 -28 38 -7 52
-10 57 -32 57 l-24 0 0 -116z"/>
<path d="M746 5278 c-3 -18 -10 -60 -16 -92 -13 -77 -13 -106 1 -106 6 0 13 9
16 20 6 24 53 29 53 6 0 -19 19 -31 30 -20 5 5 2 47 -6 94 -22 131 -22 130
-49 130 -19 0 -25 -6 -29 -32z m43 -110 c1 -10 -6 -18 -14 -18 -17 0 -18 15
-8 75 l7 40 7 -40 c5 -22 8 -48 8 -57z"/>
<path d="M866 5294 c-22 -22 -22 -161 0 -192 30 -43 94 -16 94 41 0 36 -28 36
-32 0 -2 -17 -9 -28 -18 -28 -12 0 -16 17 -18 83 -3 76 -1 83 15 80 10 -2 19
-13 21 -26 2 -12 8 -22 13 -22 16 0 22 30 11 56 -14 28 -61 33 -86 8z"/>
<path d="M990 5291 c-5 -11 -10 -56 -10 -100 0 -87 12 -111 54 -111 29 0 46
20 49 57 2 33 -26 40 -31 8 -6 -30 -21 -42 -32 -25 -11 17 -13 120 -4 144 9
24 32 19 36 -6 2 -13 10 -23 18 -23 17 0 15 41 -2 63 -16 19 -66 15 -78 -7z"/>
<path d="M1135 5298 c-4 -13 -35 -200 -35 -212 0 -16 28 -4 33 14 3 12 14 20
27 20 13 0 24 -8 27 -20 6 -23 33 -27 33 -5 0 9 -7 61 -17 115 -15 94 -18 100
-40 100 -13 0 -25 -6 -28 -12z m37 -99 c4 -40 -6 -60 -22 -43 -9 11 -1 84 10
84 4 0 10 -18 12 -41z"/>
<path d="M1256 5259 l26 -52 -21 -50 c-24 -58 -26 -77 -7 -77 7 0 22 21 32 48
l19 47 5 -45 c4 -32 10 -46 23 -48 14 -3 17 4 17 37 0 52 13 52 33 1 9 -23 22
-40 31 -40 20 0 21 -5 -9 69 l-24 63 25 49 c19 39 21 49 9 49 -8 0 -26 -21
-39 -47 l-25 -48 -1 48 c0 40 -3 47 -20 47 -17 0 -20 -7 -21 -42 l0 -43 -22
43 c-13 26 -28 42 -39 42 -17 0 -16 -5 8 -51z"/>
<path d="M1450 5194 l0 -115 48 3 c34 2 47 7 47 18 0 10 -10 15 -30 15 -27 0
-30 4 -33 33 -3 29 -1 32 22 32 32 0 35 27 4 32 -18 2 -23 10 -23 33 0 27 4
30 33 33 20 2 32 9 32 18 0 10 -13 14 -50 14 l-50 0 0 -116z"/>
<path d="M1570 5195 c0 -96 3 -115 15 -115 11 0 15 12 15 45 0 40 2 45 23 45
34 0 47 19 47 70 0 56 -12 70 -62 70 l-38 0 0 -115z m65 45 c0 -25 -5 -36 -17
-38 -15 -3 -18 4 -18 38 0 34 3 41 18 38 12 -2 17 -13 17 -38z"/>
<path d="M2186 5269 c4 -8 -5 -9 -32 -5 -51 8 -100 -11 -142 -53 -18 -18 -31
-35 -29 -37 2 -2 28 6 58 19 30 13 75 29 101 37 l47 12 64 -57 c84 -74 134
-142 117 -158 -10 -9 -11 -9 -6 0 8 14 -15 28 -60 37 -31 7 -32 7 -39 -41 -4
-26 -11 -56 -17 -66 -5 -10 -8 -21 -5 -23 2 -3 50 13 106 35 78 31 104 37 114
28 6 -7 38 -34 69 -61 32 -26 73 -70 93 -97 38 -54 45 -71 17 -46 -10 9 -37
19 -60 23 -38 6 -42 5 -42 -14 0 -12 5 -24 10 -27 6 -3 10 3 10 14 0 12 5 21
10 21 6 0 10 -5 10 -10 0 -6 3 -9 8 -9 19 3 42 -2 42 -9 0 -8 -77 -46 -95 -47
-11 0 -20 -55 -9 -55 3 0 45 17 93 39 47 21 103 41 123 45 49 9 64 30 17 24
-19 -3 -41 -8 -49 -12 -11 -5 -20 6 -32 42 -22 60 -89 138 -126 147 -36 8 -85
44 -59 45 9 0 17 4 17 9 0 5 -16 9 -35 9 -19 0 -35 -4 -35 -9 0 -21 -20 -7
-26 19 -18 72 -81 151 -136 167 -37 12 -52 27 -36 36 10 6 8 12 -7 23 -23 18
-59 21 -49 5z m159 -239 c3 -5 -8 -16 -24 -25 -38 -19 -51 -19 -51 0 0 9 9 15
25 15 14 0 25 5 25 10 0 13 17 13 25 0z"/>
<path d="M2284 5231 c4 -6 19 -11 34 -11 20 0 23 -3 13 -9 -11 -7 -1 -18 42
-45 31 -20 59 -36 62 -36 10 0 -37 65 -60 82 -27 20 -101 36 -91 19z"/>
<path d="M1948 5173 c-1 -5 -28 -25 -58 -45 -60 -40 -137 -114 -128 -123 3 -3
30 15 59 40 54 46 131 101 152 108 6 2 7 9 3 15 -8 14 -23 16 -28 5z"/>
<path d="M1980 5129 c0 -16 27 -40 42 -37 7 2 12 -3 10 -10 -1 -8 1 -11 6 -8
5 3 44 -27 87 -67 43 -39 73 -63 67 -52 -17 31 -51 66 -125 128 -68 57 -87 67
-87 46z"/>
<path d="M2456 5096 c3 -8 13 -17 22 -21 13 -5 13 -2 -3 15 -21 24 -26 25 -19
6z"/>
<path d="M2525 5040 c8 -25 23 -40 58 -61 10 -5 15 -14 13 -18 -3 -4 16 -18
42 -31 56 -27 92 -58 93 -79 0 -10 2 -11 5 -4 6 15 -68 116 -101 137 -14 9
-36 17 -50 18 -14 1 -25 7 -25 14 0 6 -10 19 -21 30 -22 19 -22 19 -14 -6z"/>
<path d="M1684 4932 c-46 -53 -114 -146 -114 -156 0 -17 18 -2 35 31 11 21 44
64 73 96 44 50 61 77 50 77 -2 0 -21 -21 -44 -48z"/>
<path d="M2138 4907 c-14 -7 -41 -26 -60 -43 -18 -16 -37 -30 -43 -29 -5 0
-11 -20 -13 -44 l-3 -44 52 47 c29 26 70 59 91 74 38 27 51 49 22 38 -8 -3
-12 -2 -9 4 8 13 -3 12 -37 -3z"/>
<path d="M800 4885 c-8 -9 -8 -15 -2 -15 12 0 26 19 19 26 -2 2 -10 -2 -17
-11z"/>
<path d="M2240 4894 c0 -17 24 -45 35 -40 7 2 19 -3 27 -12 12 -15 11 -16 -4
-3 -12 9 -18 10 -18 2 0 -10 12 -15 31 -13 3 1 38 -30 78 -69 40 -38 75 -69
77 -69 14 0 -38 57 -116 128 -82 74 -110 93 -110 76z"/>
<path d="M4878 4873 c6 -2 18 -2 25 0 6 3 1 5 -13 5 -14 0 -19 -2 -12 -5z"/>
<path d="M761 4832 c-7 -13 -11 -26 -8 -28 8 -8 29 25 25 38 -3 8 -9 4 -17
-10z"/>
<path d="M2796 4801 c16 -33 38 -42 32 -15 -2 9 -13 23 -25 31 l-23 15 16 -31z"/>
<path d="M722 4755 c-7 -14 -8 -27 -2 -30 5 -3 12 6 16 20 9 35 0 41 -14 10z"/>
<path d="M2861 4736 c9 -20 17 -25 33 -20 15 4 17 3 7 -4 -11 -8 -11 -11 0
-18 33 -21 79 -41 79 -35 -1 6 -5 12 -46 64 -12 15 -36 30 -53 33 -31 7 -32 6
-20 -20z"/>
<path d="M2811 4688 c78 -73 142 -152 132 -161 -3 -4 -19 -7 -35 -7 -15 0 -28
-4 -28 -9 0 -8 -32 -22 -55 -25 -22 -2 -36 -56 -15 -56 6 0 48 18 95 40 47 22
93 40 102 40 10 1 29 8 43 16 l25 15 -35 -5 c-19 -3 -43 -7 -54 -8 -14 -2 -22
8 -32 43 -18 61 -90 141 -141 158 -21 7 -45 15 -53 18 -8 3 15 -24 51 -59z"/>
<path d="M1526 4697 c-24 -42 -66 -167 -55 -167 5 0 13 19 19 43 5 23 22 66
36 95 30 58 29 79 0 29z"/>
<path d="M696 4674 c-9 -36 1 -43 14 -10 12 33 12 36 1 36 -5 0 -12 -12 -15
-26z"/>
<path d="M1932 4688 c-13 -6 -21 -17 -18 -24 3 -8 -3 -10 -17 -6 -12 3 -19 1
-14 -3 4 -5 0 -19 -8 -32 -9 -13 -11 -23 -5 -23 17 0 25 5 23 13 -2 4 1 7 5 7
5 0 23 18 41 40 33 41 32 46 -7 28z"/>
<path d="M2395 4639 c-22 -11 -48 -30 -57 -41 -10 -11 -18 -17 -18 -13 0 3 -7
0 -15 -9 -8 -8 -15 -31 -15 -52 l0 -37 53 49 c29 27 70 63 92 80 22 18 36 35
32 40 -4 5 -12 2 -16 -5 -6 -9 -10 -10 -12 -2 -3 7 -18 4 -44 -10z"/>
<path d="M2520 4627 c0 -7 14 -26 31 -43 24 -23 29 -25 23 -9 -6 18 30 -12
105 -85 9 -9 29 -27 45 -40 l29 -25 -16 26 c-9 14 -29 36 -44 49 -16 13 -56
50 -91 82 -63 59 -82 69 -82 45z m45 -27 c3 -5 1 -10 -4 -10 -6 0 -11 5 -11
10 0 6 2 10 4 10 3 0 8 -4 11 -10z"/>
<path d="M688 4614 c-5 -4 -8 -19 -8 -33 0 -18 3 -22 11 -14 6 6 9 21 7 33 -1
12 -6 18 -10 14z"/>
<path d="M1837 4572 c-18 -20 -23 -62 -8 -62 12 0 22 30 14 42 -3 6 -1 8 5 4
14 -8 27 13 15 25 -6 6 -16 2 -26 -9z"/>
<path d="M3068 4584 c-9 -8 16 -54 28 -54 17 0 25 27 11 38 -22 16 -34 22 -39
16z"/>
<path d="M2845 4560 c3 -5 16 -10 28 -9 21 0 21 1 2 9 -28 12 -37 12 -30 0z"/>
<path d="M680 4510 c0 -18 4 -29 10 -25 6 3 10 15 10 25 0 10 -4 22 -10 25 -6
4 -10 -7 -10 -25z"/>
<path d="M3148 4500 c12 -11 29 -20 39 -21 16 0 16 -1 -2 -9 -19 -9 -19 -9 3
-16 12 -3 22 -10 22 -15 0 -5 7 -9 15 -9 8 0 15 -3 15 -8 0 -4 10 -13 22 -21
20 -13 20 -12 -3 19 -49 65 -87 100 -110 100 l-23 0 22 -20z"/>
<path d="M3095 4437 c39 -35 84 -85 102 -109 l32 -45 -51 -23 c-59 -26 -98
-57 -98 -77 0 -20 14 -16 110 32 49 25 98 45 107 45 10 0 27 8 38 17 21 17 19
16 -74 -5 -17 -3 -22 -1 -17 7 22 35 -98 191 -157 204 -12 2 -31 8 -42 12 -11
4 12 -22 50 -58z"/>
<path d="M1462 4465 c0 -16 2 -22 5 -12 2 9 2 23 0 30 -3 6 -5 -1 -5 -18z"/>
<path d="M4981 4476 c2 -2 18 -6 34 -10 22 -5 26 -4 15 4 -14 9 -59 15 -49 6z"/>
<path d="M680 4436 c0 -14 5 -28 10 -31 6 -3 10 5 10 19 0 14 -4 28 -10 31 -6
3 -10 -5 -10 -19z"/>
<path d="M5235 4443 l-50 -4 105 -35 c121 -39 113 -37 104 -23 -8 13 -95 70
-103 67 -4 -1 -28 -3 -56 -5z"/>
<path d="M2220 4425 c-7 -8 -15 -13 -19 -11 -3 2 -15 -2 -26 -10 -17 -13 -18
-16 -5 -24 11 -7 17 -5 20 6 3 9 10 14 14 12 5 -2 15 7 24 20 16 25 11 30 -8
7z"/>
<path d="M1743 4412 c-11 -9 -28 -32 -38 -49 -19 -32 -19 -33 3 -53 19 -18 23
-19 28 -5 4 8 4 24 1 35 -3 11 -1 20 4 20 5 0 9 12 9 26 0 14 4 23 9 19 5 -3
12 -1 15 4 12 18 -12 21 -31 3z"/>
<path d="M2730 4389 c0 -5 -5 -7 -11 -4 -19 12 -55 -4 -96 -44 -22 -22 -43
-37 -47 -34 -3 4 -6 -13 -6 -37 l0 -44 37 35 c21 18 40 36 43 39 3 3 26 23 53
44 45 37 58 56 37 56 -5 0 -10 -5 -10 -11z"/>
<path d="M697 4373 c-7 -12 11 -53 22 -53 6 0 6 11 0 30 -11 31 -15 35 -22 23z"/>
<path d="M2797 4359 c4 -14 12 -19 24 -16 10 3 24 -2 31 -11 11 -14 10 -15 -7
-8 -14 5 -17 4 -9 -4 6 -6 21 -12 33 -15 13 -2 31 -12 40 -22 51 -54 122 -115
113 -98 -12 23 -167 166 -199 183 -29 16 -32 15 -26 -9z"/>
<path d="M3343 4340 c9 -13 17 -32 17 -42 0 -10 7 -18 15 -18 29 0 18 30 -24
65 l-25 20 17 -25z"/>
<path d="M3140 4300 c0 -5 4 -10 9 -10 6 0 13 5 16 10 3 6 -1 10 -9 10 -9 0
-16 -4 -16 -10z"/>
<path d="M730 4293 c0 -19 11 -43 21 -43 13 0 11 14 -6 36 -8 10 -15 14 -15 7z"/>
<path d="M3180 4296 c0 -2 7 -7 16 -10 8 -3 12 -2 9 4 -6 10 -25 14 -25 6z"/>
<path d="M5370 4273 c-82 -31 -195 -66 -332 -103 -82 -22 -116 -26 -145 -20
-21 5 -67 10 -103 12 l-65 3 -3 -60 c-4 -70 3 -105 21 -105 14 0 57 -41 57
-53 0 -4 -9 -7 -20 -7 -29 0 -25 -13 23 -72 86 -106 194 -153 332 -146 59 3
95 11 138 31 71 32 154 114 191 188 28 56 34 107 14 106 -7 0 -23 1 -35 1 -32
3 -30 39 2 54 13 6 22 14 20 18 -3 4 5 10 16 13 19 5 21 10 14 44 -8 47 -41
123 -52 122 -4 -1 -37 -12 -73 -26z m-100 -238 c14 -2 29 -4 33 -4 5 -1 5 -6
2 -12 -4 -6 3 -17 15 -26 12 -8 19 -21 16 -29 -3 -7 -1 -16 4 -19 5 -3 9 -21
8 -40 -1 -32 -3 -33 -30 -28 -22 4 -28 2 -28 -11 0 -9 6 -16 13 -15 29 4 41
-1 30 -12 -12 -12 -53 -3 -53 12 0 5 -9 9 -20 9 -22 0 -17 -26 9 -47 9 -7 11
-13 5 -13 -6 0 -19 9 -30 21 -14 16 -16 24 -7 38 12 18 8 31 -9 31 -4 0 -8 -9
-8 -20 0 -22 -1 -23 -24 -14 -9 3 -16 15 -16 25 0 10 -4 19 -10 19 -5 0 -10
-11 -10 -25 0 -14 -4 -25 -10 -25 -10 0 -12 5 -14 33 -1 13 -16 27 -30 27 -4
0 -6 -9 -3 -20 3 -11 1 -20 -4 -20 -5 0 -9 6 -9 14 0 9 -7 12 -20 9 -29 -8
-24 12 6 23 l26 9 -44 28 c-42 28 -42 29 -11 22 38 -7 53 10 27 30 -17 13 -16
14 14 9 23 -5 32 -3 32 7 0 8 11 15 25 15 14 1 25 -2 25 -7 0 -5 4 -9 10 -9 5
0 7 6 4 13 -5 14 9 14 86 2z m-230 -105 c13 -9 13 -10 0 -10 -8 0 -22 5 -30
10 -13 9 -13 10 0 10 8 0 22 -5 30 -10z m150 -105 c0 -8 -4 -15 -10 -15 -5 0
-10 7 -10 15 0 8 5 15 10 15 6 0 10 -7 10 -15z m27 -37 c-3 -8 -6 -5 -6 6 -1
11 2 17 5 13 3 -3 4 -12 1 -19z m88 12 c3 -5 1 -10 -4 -10 -6 0 -11 5 -11 10
0 6 2 10 4 10 3 0 8 -4 11 -10z"/>
<path d="M5130 4000 c0 -5 4 -10 9 -10 6 0 13 5 16 10 3 6 -1 10 -9 10 -9 0
-16 -4 -16 -10z"/>
<path d="M5096 3964 c-4 -10 -1 -14 6 -12 15 5 23 28 10 28 -5 0 -13 -7 -16
-16z"/>
<path d="M5140 3930 c0 -5 5 -10 10 -10 6 0 10 5 10 10 0 6 -4 10 -10 10 -5 0
-10 -4 -10 -10z"/>
<path d="M5200 3920 c0 -5 5 -10 10 -10 6 0 10 5 10 10 0 6 -4 10 -10 10 -5 0
-10 -4 -10 -10z"/>
<path d="M5295 3920 c3 -5 8 -10 11 -10 2 0 4 5 4 10 0 6 -5 10 -11 10 -5 0
-7 -4 -4 -10z"/>
<path d="M5320 3916 c0 -9 5 -16 10 -16 6 0 10 4 10 9 0 6 -4 13 -10 16 -5 3
-10 -1 -10 -9z"/>
<path d="M5260 3910 c0 -5 5 -10 10 -10 6 0 10 5 10 10 0 6 -4 10 -10 10 -5 0
-10 -4 -10 -10z"/>
<path d="M2108 4283 c-10 -2 -18 -13 -18 -24 0 -25 4 -24 24 6 9 14 15 24 14
24 -2 -1 -11 -3 -20 -6z"/>
<path d="M4740 4234 c-8 -19 -8 -29 0 -34 15 -9 163 0 175 11 5 6 2 9 -9 9 -9
0 -27 5 -39 12 -12 6 -29 12 -37 13 -8 1 -30 5 -47 9 -30 7 -34 5 -43 -20z"/>
<path d="M3320 4244 c0 -4 29 -33 64 -66 57 -52 136 -146 136 -161 0 -4 -16
-9 -36 -13 -36 -7 -114 -70 -114 -93 0 -15 52 7 129 53 31 19 75 40 99 48 23
7 42 16 42 20 0 12 -50 5 -62 -9 -17 -21 -37 -15 -44 15 -18 75 -75 142 -156
183 -32 16 -58 26 -58 23z"/>
<path d="M3479 4233 c6 -13 16 -23 21 -23 5 0 7 -6 5 -12 -3 -7 9 -21 26 -30
l30 -18 -19 28 c-11 15 -32 38 -47 52 -27 24 -27 24 -16 3z"/>
<path d="M770 4222 c0 -5 9 -17 20 -27 22 -20 26 -9 6 18 -14 18 -26 22 -26 9z"/>
<path d="M1697 4202 c-35 -36 -34 -48 3 -61 l30 -10 0 50 c0 27 -1 49 -3 49
-2 0 -15 -13 -30 -28z"/>
<path d="M826 4161 c-3 -5 1 -14 9 -21 12 -10 15 -10 15 3 0 19 -16 31 -24 18z"/>
<path d="M2468 4145 c-42 -28 -52 -41 -38 -50 5 -3 10 0 11 7 0 9 3 8 7 -3 5
-12 14 -6 39 28 37 49 34 52 -19 18z"/>
<path d="M1996 4135 c-13 -10 -15 -15 -6 -15 11 0 10 -3 -2 -12 -24 -20 -28
-45 -9 -62 24 -22 31 -20 31 9 0 14 7 38 16 53 15 25 15 25 0 8 -12 -15 -16
-16 -16 -5 0 8 5 20 12 27 17 17 -3 14 -26 -3z"/>
<path d="M2975 4125 c-16 -7 -43 -26 -59 -43 -16 -17 -33 -29 -37 -26 -12 7
-26 -27 -27 -64 l-1 -34 57 54 c31 29 71 65 87 78 17 14 34 30 37 36 9 14 -22
14 -57 -1z"/>
<path d="M3080 4120 c0 -6 7 -13 15 -16 8 -4 13 -9 10 -14 -2 -4 8 -18 23 -31
14 -13 20 -16 13 -6 -28 36 7 15 54 -34 57 -58 143 -128 110 -90 -22 26 -113
114 -161 156 -40 35 -64 49 -64 35z m50 -40 c0 -5 -2 -10 -4 -10 -3 0 -8 5
-11 10 -3 6 -1 10 4 10 6 0 11 -4 11 -10z"/>
<path d="M673 4113 c-12 -2 -41 -22 -65 -44 -24 -22 -36 -38 -28 -36 8 2 23
-7 33 -20 10 -13 23 -21 28 -18 5 4 6 -2 2 -11 -5 -13 3 -11 39 10 48 28 88
34 88 13 0 -7 37 -48 81 -92 45 -44 79 -72 75 -62 -3 11 -2 16 5 12 5 -4 7
-15 4 -26 -6 -18 4 -24 28 -20 5 1 6 -3 2 -9 -10 -16 97 -123 107 -108 6 9 8
8 6 -5 -2 -11 40 -62 112 -138 121 -127 176 -175 163 -143 -4 12 -3 15 5 10 7
-4 12 -15 12 -25 0 -10 6 -24 14 -30 12 -10 14 -8 9 11 -4 18 -3 20 6 8 6 -8
11 -23 11 -32 0 -21 16 -24 23 -5 3 7 -27 47 -67 88 -39 41 -127 135 -195 209
-111 120 -199 213 -392 412 -31 32 -62 57 -70 57 -8 -1 -24 -4 -36 -6z m154
-155 c-3 -8 -6 -5 -6 6 -1 11 2 17 5 13 3 -3 4 -12 1 -19z m41 -33 c-3 -3 -9
2 -12 12 -6 14 -5 15 5 6 7 -7 10 -15 7 -18z m29 -37 c-3 -8 -6 -5 -6 6 -1 11
2 17 5 13 3 -3 4 -12 1 -19z m430 -450 c-3 -8 -6 -5 -6 6 -1 11 2 17 5 13 3
-3 4 -12 1 -19z"/>
<path d="M3619 4103 c6 -12 16 -25 21 -28 6 -3 10 -17 10 -30 0 -17 4 -23 14
-19 24 9 10 43 -33 79 l-24 20 12 -22z"/>
<path d="M2387 4040 c-8 -11 -17 -17 -20 -13 -4 3 -7 0 -7 -8 0 -16 17 -46 22
-39 2 3 12 17 21 32 16 26 16 27 0 21 -16 -6 -16 -5 -4 10 7 9 11 17 8 17 -3
0 -12 -9 -20 -20z"/>
<path d="M3468 4033 c7 -3 16 -2 19 1 4 3 -2 6 -13 5 -11 0 -14 -3 -6 -6z"/>
<path d="M3755 3981 c22 -21 42 -34 44 -28 5 12 -54 67 -72 67 -6 0 6 -18 28
-39z"/>
<path d="M3655 3939 c66 -59 102 -96 132 -141 30 -45 48 -49 39 -10 -16 67
-124 176 -186 188 l-35 7 50 -44z"/>
<path d="M1970 3945 c-32 -34 -33 -54 -4 -61 14 -4 28 -4 31 0 4 3 -4 6 -16 6
-12 0 -19 4 -16 10 3 6 15 10 26 10 20 0 23 12 10 43 -6 16 -9 16 -31 -8z"/>
<path d="M3826 3906 c10 -8 21 -12 24 -10 5 6 -21 24 -34 24 -6 0 -1 -6 10
-14z"/>
<path d="M2786 3895 c-3 -9 -10 -13 -16 -10 -6 3 -25 -8 -43 -26 -27 -28 -29
-34 -14 -37 9 -2 14 -8 11 -14 -5 -7 -2 -8 5 -4 7 5 10 10 7 14 -3 3 2 11 12
19 15 12 14 13 -8 2 -23 -11 -24 -11 -11 4 7 10 19 17 26 17 14 0 50 38 43 45
-3 3 -8 -1 -12 -10z"/>
<path d="M2303 3889 c-12 -4 -33 -25 -46 -46 l-24 -38 21 -21 c27 -26 32 -23
41 22 3 20 13 48 22 61 19 28 15 33 -14 22z"/>
<path d="M3886 3868 c37 -29 43 -37 51 -71 6 -30 26 -32 31 -3 4 20 -71 96
-95 96 -10 0 -6 -7 13 -22z"/>
<path d="M3249 3850 c-44 -23 -98 -78 -105 -107 -14 -55 3 -48 96 38 81 76 91
89 70 88 -14 0 -41 -8 -61 -19z"/>
<path d="M3372 3848 c2 -7 16 -19 30 -25 14 -7 67 -52 118 -100 51 -49 88 -79
82 -68 -13 25 -178 177 -211 194 -19 11 -23 11 -19 -1z"/>
<path d="M2666 3775 c-17 -25 -22 -65 -8 -65 4 0 16 14 26 31 11 18 13 29 6
24 -8 -5 -11 -3 -8 6 3 8 11 13 17 12 6 -2 11 2 11 7 0 19 -28 10 -44 -15z"/>
<path d="M3865 3764 c-6 -9 -25 -16 -45 -16 -19 0 -41 -5 -47 -11 -7 -5 -13
-6 -13 -1 0 5 -6 2 -13 -7 -7 -8 -26 -24 -44 -34 -35 -21 -51 -55 -25 -55 9 0
53 22 97 49 44 27 97 55 118 62 20 7 37 17 37 21 0 15 -55 8 -65 -8z"/>
<path d="M4043 3742 c0 -11 5 -18 10 -15 4 2 17 -5 28 -18 10 -12 21 -20 24
-17 3 2 -11 19 -30 38 -30 29 -34 30 -32 12z"/>
<path d="M3980 3647 c41 -39 89 -90 106 -112 39 -50 51 -42 25 16 -31 71 -148
170 -198 169 -4 0 26 -33 67 -73z"/>
<path d="M2239 3679 c-26 -25 -30 -32 -18 -40 19 -12 42 -11 34 1 -3 6 -2 10
4 10 5 0 12 -8 14 -17 3 -10 5 3 6 30 0 26 -1 47 -3 47 -2 0 -19 -14 -37 -31z"/>
<path d="M2583 3628 c-24 -16 -43 -36 -43 -44 0 -9 -7 -23 -16 -31 -15 -15
-14 -18 8 -34 12 -10 26 -19 29 -19 7 0 33 89 31 103 -1 4 2 7 6 7 5 0 14 11
20 25 6 14 11 25 9 24 -1 0 -21 -14 -44 -31z"/>
<path d="M3037 3604 c-26 -19 -47 -38 -47 -43 0 -6 -13 -25 -30 -43 -32 -35
-35 -45 -20 -68 8 -13 11 -12 24 5 8 11 13 29 10 40 -4 15 -3 16 4 6 8 -11 12
-10 21 6 5 11 7 23 4 27 -3 3 -1 6 5 6 12 0 87 88 81 95 -2 2 -26 -12 -52 -31z"/>
<path d="M4194 3597 c49 -46 62 -84 26 -74 -13 3 -28 -2 -38 -13 -10 -11 -33
-21 -52 -24 -39 -5 -90 -25 -90 -37 0 -4 -14 -12 -30 -18 -34 -11 -57 -54 -33
-59 8 -2 56 23 106 57 51 33 111 66 135 73 35 11 42 17 42 39 0 26 -36 67 -77
88 -39 20 -36 12 11 -32z"/>
<path d="M3555 3586 c-16 -6 -51 -32 -78 -58 -39 -38 -48 -52 -43 -70 3 -13 6
-27 6 -32 0 -10 158 138 173 162 10 15 -16 15 -58 -2z"/>
<path d="M3672 3573 c2 -10 9 -17 15 -16 10 2 121 -90 163 -136 9 -9 27 -25
40 -36 l24 -20 -17 24 c-18 26 -182 176 -210 192 -16 9 -18 8 -15 -8z"/>
<path d="M2518 3415 c-21 -19 -37 -35 -35 -36 1 0 21 -2 45 -5 l42 -6 0 41 c0
23 -3 41 -7 41 -5 0 -25 -16 -45 -35z m22 -25 c0 -5 -5 -10 -11 -10 -5 0 -7 5
-4 10 3 6 8 10 11 10 2 0 4 -4 4 -10z"/>
<path d="M4281 3381 c41 -38 88 -87 104 -110 33 -44 45 -51 45 -23 0 48 -107
166 -173 191 -54 21 -50 10 24 -58z"/>
<path d="M4460 3383 c0 -5 18 -27 40 -48 49 -47 53 -75 11 -75 -29 0 -57 -21
-44 -33 3 -4 -4 -7 -17 -7 -65 0 -180 -72 -180 -114 0 -27 22 -18 115 48 50
34 107 69 129 77 43 15 58 43 43 76 -10 23 -97 90 -97 76z"/>
<path d="M2852 3341 c-28 -22 -54 -45 -58 -52 -7 -12 32 -48 51 -46 10 1 68
128 61 134 -2 2 -26 -14 -54 -36z"/>
<path d="M3356 3350 c-16 -10 -33 -24 -37 -32 -5 -7 -9 -9 -9 -4 0 5 -16 -8
-35 -30 -19 -21 -35 -45 -35 -51 0 -7 -5 -13 -11 -13 -6 0 -9 -10 -7 -22 2
-13 9 -23 15 -23 16 0 84 95 77 107 -3 5 -1 7 4 6 5 -2 24 14 41 36 42 53 42
55 -3 26z"/>
<path d="M1440 3341 c0 -10 7 -24 15 -31 12 -10 15 -10 15 1 0 18 17 -1 23
-26 4 -17 5 -17 6 4 1 14 -10 34 -25 47 -30 29 -34 29 -34 5z"/>
<path d="M3900 3319 c0 -5 -4 -8 -9 -4 -11 6 -59 -14 -82 -35 -8 -8 -30 -27
-47 -43 -25 -21 -32 -35 -32 -62 0 -19 2 -35 4 -35 8 0 186 175 186 183 0 4
-4 7 -10 7 -5 0 -10 -5 -10 -11z"/>
<path d="M3970 3300 c0 -5 6 -10 13 -10 11 0 39 -25 186 -164 27 -26 39 -33
32 -19 -12 24 -208 203 -222 203 -5 0 -9 -4 -9 -10z"/>
<path d="M1520 3280 c0 -6 6 -10 13 -10 6 0 -4 -12 -23 -27 -80 -63 -160 -167
-160 -207 1 -18 3 -17 23 9 37 51 126 142 168 170 21 15 39 30 39 34 0 3 -14
14 -30 23 -17 9 -30 13 -30 8z"/>
<path d="M1718 3242 c-16 -3 -15 -8 9 -49 24 -42 25 -45 6 -39 -23 7 -37 -7
-47 -46 -8 -34 -3 -34 53 -3 23 14 49 25 57 25 8 0 14 7 14 16 0 14 -3 14 -15
4 -13 -11 -15 -8 -15 16 -1 36 -39 82 -62 76z"/>
<path d="M4641 3227 c2 -1 15 -11 29 -22 l25 -20 -19 23 c-11 12 -24 22 -29
22 -6 0 -8 -1 -6 -3z"/>
<path d="M1590 3135 c30 -30 55 -55 57 -55 1 0 0 8 -4 18 -9 26 -75 92 -92 92
-9 0 8 -23 39 -55z"/>
<path d="M2796 3150 c-22 -17 -33 -30 -25 -31 8 -1 29 -2 47 -4 30 -3 32 -1
32 31 0 19 -3 34 -7 34 -5 0 -26 -14 -47 -30z"/>
<path d="M4521 3174 c0 -5 25 -29 55 -54 30 -25 75 -71 100 -102 25 -32 49
-58 55 -58 12 0 12 1 -6 43 -17 42 -61 95 -114 136 -38 30 -92 50 -90 35z"/>
<path d="M1830 3114 c0 -3 8 -18 19 -32 10 -15 23 -36 29 -48 10 -19 9 -21
-12 -17 -18 4 -24 -2 -34 -33 -6 -21 -10 -40 -7 -42 8 -9 125 54 125 67 0 10
-3 11 -14 2 -11 -9 -14 -4 -19 25 -6 37 -47 84 -73 84 -7 0 -14 -3 -14 -6z"/>
<path d="M4770 3108 c0 -7 15 -25 34 -40 18 -15 36 -38 38 -53 3 -14 3 -24 1
-21 -10 9 -62 -16 -68 -33 -3 -11 -25 -22 -56 -30 -28 -7 -66 -26 -84 -42 -23
-21 -35 -26 -38 -17 -3 7 -6 4 -6 -7 -1 -11 -4 -31 -8 -44 -6 -22 -5 -23 18
-11 13 7 60 41 104 74 44 34 98 68 120 76 34 13 40 20 43 49 3 27 -3 39 -38
72 -42 40 -60 48 -60 27z"/>
<path d="M3159 3084 c-20 -12 -46 -35 -59 -51 l-22 -28 28 -22 c15 -12 31 -20
35 -17 8 4 61 135 57 139 -2 1 -19 -8 -39 -21z"/>
<path d="M3649 3072 c-45 -30 -73 -56 -102 -95 -27 -36 -33 -78 -12 -83 6 -1
43 42 82 97 40 54 70 99 65 98 -4 0 -19 -8 -33 -17z"/>
<path d="M1600 3053 c-28 -11 -50 -36 -50 -60 0 -32 8 -29 60 22 36 36 41 45
25 44 -11 0 -27 -3 -35 -6z"/>
<path d="M1680 3046 c0 -5 25 -30 80 -81 31 -29 32 -29 20 -5 -7 14 -20 33
-29 44 -16 18 -71 51 -71 42z"/>
<path d="M4187 3043 c-15 -2 -25 -9 -22 -14 3 -5 -1 -6 -9 -3 -10 4 -33 -13
-65 -46 -54 -56 -67 -81 -54 -104 6 -11 28 5 96 70 48 47 87 90 87 95 0 5 -1
8 -2 8 -2 -1 -15 -4 -31 -6z"/>
<path d="M4283 3015 c0 -8 2 -13 5 -10 10 9 43 -17 38 -30 -3 -8 0 -12 7 -10
7 3 51 -33 100 -78 48 -46 87 -77 87 -71 0 7 -37 45 -82 85 -45 41 -96 86
-112 102 -33 31 -43 34 -43 12z"/>
<path d="M1995 2934 c40 -52 43 -64 15 -64 -13 0 -24 -10 -31 -27 -19 -50 -8
-53 61 -18 42 22 57 34 44 35 -17 0 -23 8 -29 38 -6 31 -45 88 -45 65 0 -4 -5
-2 -12 5 -7 7 -18 12 -25 12 -7 0 2 -20 22 -46z"/>
<path d="M1482 2904 c-24 -17 -29 -34 -9 -34 12 0 42 39 35 46 -2 2 -14 -3
-26 -12z"/>
<path d="M1732 2900 c-35 -22 -50 -46 -36 -60 8 -8 94 62 94 75 0 11 -27 4
-58 -15z"/>
<path d="M3088 2891 c-42 -31 -40 -41 8 -41 33 0 44 13 44 51 0 25 -8 24 -52
-10z"/>
<path d="M1820 2902 c0 -5 25 -31 55 -57 59 -50 71 -50 27 1 -31 36 -82 71
-82 56z"/>
<path d="M4820 2903 c1 -5 26 -28 57 -53 31 -25 79 -72 106 -105 68 -82 80
-86 52 -17 -21 50 -99 128 -157 158 -51 26 -58 28 -58 17z"/>
<path d="M5081 2839 c6 -13 27 -37 45 -55 39 -36 47 -75 14 -67 -23 6 -63 -24
-56 -42 2 -7 -20 -16 -60 -24 -37 -8 -64 -18 -64 -26 0 -6 -13 -22 -29 -34
-27 -21 -49 -67 -37 -78 6 -7 50 23 142 97 45 36 97 73 114 83 30 16 32 20 27
59 -6 43 -23 63 -80 94 -28 15 -28 15 -16 -7z"/>
<path d="M2106 2832 c6 -4 25 -27 43 -52 l32 -45 -23 -5 c-15 -4 -26 -17 -32
-38 -12 -42 -5 -47 35 -26 55 28 59 36 45 84 -16 53 -45 85 -82 88 -16 1 -24
-2 -18 -6z"/>
<path d="M3484 2828 c-5 -7 -9 -16 -9 -20 0 -3 -4 -10 -9 -15 -5 -5 -6 -3 -2
5 14 25 -17 11 -50 -22 -41 -41 -42 -50 -8 -73 25 -16 27 -16 38 3 35 59 72
173 40 122z"/>
<path d="M3973 2798 c-4 -7 -29 -24 -55 -37 -26 -13 -46 -27 -43 -31 2 -4 -4
-15 -15 -25 -11 -10 -20 -24 -20 -32 0 -7 -4 -13 -10 -13 -12 0 -13 -47 -1
-54 9 -6 166 192 158 200 -3 3 -9 0 -14 -8z"/>
<path d="M1626 2759 c-20 -16 -24 -24 -15 -30 8 -4 20 2 32 17 26 33 17 40
-17 13z"/>
<path d="M1890 2763 c-28 -11 -50 -36 -50 -60 0 -32 9 -28 54 23 36 41 34 51
-4 37z"/>
<path d="M4510 2762 c-49 -16 -100 -45 -133 -77 -31 -30 -37 -43 -35 -71 1
-20 5 -37 8 -39 4 -2 46 36 94 84 82 82 103 115 66 103z"/>
<path d="M1970 2752 c0 -4 25 -30 55 -56 61 -52 72 -50 22 5 -33 37 -77 66
-77 51z"/>
<path d="M4600 2730 c17 -13 20 -20 10 -20 -13 0 -13 -2 0 -9 8 -6 17 -8 22
-5 11 7 58 -38 51 -49 -3 -6 -2 -7 3 -4 5 3 42 -25 82 -63 68 -64 99 -81 50
-26 -43 47 -218 196 -231 196 -6 0 -1 -9 13 -20z"/>
<path d="M2230 2723 c0 -13 5 -23 10 -23 13 0 13 11 0 30 -8 12 -10 11 -10 -7z"/>
<path d="M2262 2678 c19 -16 63 -78 71 -100 5 -15 4 -16 -13 -6 -24 15 -37 4
-46 -40 l-7 -33 29 13 c74 33 103 54 94 68 -7 10 -10 11 -10 3 0 -26 -18 -12
-24 20 -9 44 -45 82 -80 85 -26 2 -28 0 -14 -10z"/>
<path d="M3376 2619 c-28 -20 -34 -29 -21 -29 10 0 27 8 38 18 19 16 20 16 14
-6 -3 -15 -1 -22 6 -19 13 4 23 67 10 66 -4 0 -26 -14 -47 -30z"/>
<path d="M1775 2615 c-16 -13 -26 -27 -23 -31 11 -10 40 4 33 16 -3 5 -2 10 3
10 6 0 12 7 16 15 7 19 7 19 -29 -10z"/>
<path d="M2028 2609 c-32 -16 -38 -25 -38 -51 l0 -32 50 49 c28 27 50 51 50
52 0 8 -29 0 -62 -18z"/>
<path d="M5136 2621 c-3 -3 24 -30 59 -59 35 -29 81 -74 102 -100 67 -83 73
-88 73 -68 0 34 -40 94 -102 152 -60 55 -122 91 -132 75z"/>
<path d="M2120 2601 c0 -5 15 -20 33 -34 17 -14 42 -35 55 -46 41 -40 22 -3
-23 43 -42 44 -65 57 -65 37z"/>
<path d="M5370 2597 c0 -2 11 -17 24 -32 14 -16 23 -32 20 -37 -3 -4 1 -8 9
-8 20 0 57 -43 57 -67 0 -14 -8 -23 -25 -27 -13 -3 -38 -20 -55 -36 -17 -17
-36 -30 -42 -30 -6 0 -29 -20 -52 -45 -24 -25 -48 -45 -55 -45 -7 0 -9 5 -6
10 3 6 2 10 -3 10 -5 0 -12 -10 -15 -22 -2 -13 -8 -31 -12 -41 -11 -27 20 -11
90 46 33 27 67 54 76 61 12 10 19 10 37 -2 13 -9 22 -10 22 -4 0 6 -8 16 -17
21 -17 10 -17 12 1 26 11 8 30 15 42 15 13 0 26 5 29 10 4 6 11 7 17 4 7 -4 8
-2 4 4 -4 6 -13 9 -21 5 -17 -6 -20 8 -4 24 6 6 9 25 7 44 -2 26 -14 42 -56
76 -46 37 -72 52 -72 40z"/>
<path d="M3760 2533 c-19 -13 -42 -32 -50 -41 -8 -10 -24 -23 -34 -29 -16 -9
-14 -12 18 -31 l36 -21 24 42 c25 43 49 98 44 102 -2 1 -19 -9 -38 -22z"/>
<path d="M2410 2545 c0 -4 18 -30 40 -58 39 -52 39 -52 15 -55 -17 -2 -27 -13
-35 -38 -7 -20 -9 -38 -6 -41 3 -3 27 7 53 23 26 16 53 31 60 34 8 3 9 10 3
20 -7 11 -10 11 -10 2 0 -7 -4 -10 -10 -7 -5 3 -10 14 -10 24 0 10 -9 30 -20
43 -10 14 -16 28 -13 32 3 3 1 6 -5 6 -20 0 -26 2 -44 11 -10 5 -18 7 -18 4z"/>
<path d="M4259 2497 c-40 -24 -109 -83 -109 -93 0 -3 -9 -13 -19 -22 -15 -13
-17 -22 -11 -39 5 -13 14 -23 19 -23 10 0 112 122 146 173 20 32 21 31 -26 4z"/>
<path d="M1922 2470 c-18 -11 -30 -25 -27 -30 11 -18 30 -10 47 20 9 17 16 30
15 30 -1 0 -17 -9 -35 -20z"/>
<path d="M2178 2458 c-27 -15 -38 -29 -38 -45 0 -33 10 -29 60 22 48 49 38 58
-22 23z"/>
<path d="M4790 2459 c-24 -11 -64 -34 -87 -52 -39 -30 -42 -35 -43 -79 0 -27
3 -48 6 -48 10 0 184 180 184 190 0 13 -7 12 -60 -11z"/>
<path d="M2270 2462 c0 -12 91 -102 104 -102 13 0 -36 60 -72 88 -18 14 -32
20 -32 14z"/>
<path d="M4907 2444 c3 -7 9 -14 15 -14 5 0 6 -5 2 -12 -4 -6 -3 -8 4 -4 6 3
15 -1 20 -10 5 -9 12 -15 15 -15 4 1 7 -2 8 -6 0 -5 9 -11 20 -15 12 -5 17
-13 13 -20 -5 -8 -2 -9 9 -5 10 4 18 -1 22 -14 4 -10 11 -19 16 -19 5 0 32
-21 59 -46 28 -26 50 -42 50 -37 0 15 -19 35 -125 130 -100 89 -139 116 -128
87z"/>
<path d="M2560 2390 c0 -5 3 -10 8 -10 4 0 23 -24 42 -53 19 -28 40 -55 45
-59 6 -5 6 -8 -2 -8 -6 0 -15 5 -18 10 -10 16 -42 12 -49 -6 -3 -9 -6 -27 -6
-40 l0 -24 50 25 c28 14 50 30 50 36 0 5 5 7 10 4 6 -3 10 -1 10 5 0 6 -8 10
-17 8 -12 -2 -19 6 -23 27 -8 39 -40 87 -54 82 -6 -2 -19 0 -28 5 -12 5 -18 5
-18 -2z"/>
<path d="M3673 2348 c-35 -25 -42 -38 -18 -38 8 0 15 5 15 10 0 7 6 7 19 0 28
-15 31 -13 31 20 0 36 -6 37 -47 8z"/>
<path d="M2071 2319 c-27 -16 -31 -23 -20 -30 22 -14 27 -11 44 21 9 17 14 30
13 30 -2 0 -18 -9 -37 -21z"/>
<path d="M2349 2317 c-39 -18 -59 -37 -59 -58 0 -28 11 -23 60 26 45 46 45 52
-1 32z"/>
<path d="M2420 2311 c0 -10 46 -57 82 -83 45 -32 32 -5 -22 46 -50 47 -60 53
-60 37z"/>
<path d="M5378 2250 c-173 -128 -526 -516 -598 -658 -16 -33 -30 -61 -30 -63
0 -2 11 -5 25 -5 14 -1 22 2 19 7 -3 5 1 9 9 9 8 0 18 7 21 16 3 8 10 13 15
10 14 -9 76 42 205 165 115 110 143 141 280 314 184 232 206 317 54 205z"/>
<path d="M4045 2234 c-27 -20 -51 -42 -53 -50 -2 -8 -9 -14 -15 -14 -7 0 2 -9
18 -20 17 -11 33 -20 37 -20 4 0 24 32 43 70 19 39 32 70 28 69 -5 0 -30 -16
-58 -35z"/>
<path d="M2720 2245 c0 -2 18 -28 40 -57 39 -52 50 -76 30 -63 -20 12 -49 -6
-55 -36 -4 -17 -5 -33 -2 -35 2 -3 22 5 43 17 22 12 48 27 60 33 11 6 19 17
16 24 -3 10 -7 9 -16 -4 -11 -15 -14 -12 -20 24 -3 23 -17 53 -32 69 -14 15
-22 21 -18 13 5 -11 2 -10 -13 3 -19 17 -33 22 -33 12z"/>
<path d="M4536 2184 c-37 -25 -66 -47 -63 -50 3 -3 -6 -16 -20 -30 -27 -27
-28 -69 -1 -69 15 0 158 168 158 186 0 12 4 14 -74 -37z"/>
<path d="M2221 2168 c-31 -20 -32 -22 -16 -35 16 -11 21 -9 37 18 11 17 18 33
16 35 -2 1 -19 -7 -37 -18z"/>
<path d="M5131 2169 c-18 -11 -35 -18 -38 -16 -2 3 -16 -7 -31 -22 -15 -15
-37 -34 -49 -42 -23 -16 -40 -99 -20 -99 5 0 51 40 101 90 62 60 88 92 81 99
-7 7 -21 4 -44 -10z"/>
<path d="M2488 2160 c-37 -20 -55 -50 -43 -71 8 -11 68 41 86 74 12 22 3 21
-43 -3z"/>
<path d="M5228 2163 c7 -3 16 -2 19 1 4 3 -2 6 -13 5 -11 0 -14 -3 -6 -6z"/>
<path d="M2582 2152 c6 -15 108 -104 108 -95 0 13 -89 103 -102 103 -5 0 -8
-3 -6 -8z"/>
<path d="M2881 2082 c7 -9 26 -32 41 -50 16 -18 28 -43 27 -55 0 -12 -3 -16
-6 -9 -9 24 -34 12 -49 -24 -18 -43 -14 -50 18 -33 37 20 68 46 61 53 -3 3 3
6 15 6 12 0 22 4 22 10 0 5 -7 7 -15 4 -11 -4 -17 2 -21 22 -8 40 -33 68 -73
82 -31 11 -32 11 -20 -6z"/>
<path d="M3965 2064 c-39 -25 -34 -26 29 -7 13 4 17 2 12 -5 -4 -7 -2 -12 3
-12 6 0 11 11 11 25 0 31 -5 31 -55 -1z"/>
<path d="M2372 2014 c-26 -18 -28 -30 -7 -38 10 -3 20 5 30 24 17 33 10 38
-23 14z"/>
<path d="M2652 2013 c-42 -21 -70 -59 -54 -75 7 -7 13 -10 14 -7 2 2 23 26 48
52 47 50 45 57 -8 30z"/>
<path d="M2730 2013 c0 -5 25 -33 55 -63 58 -57 72 -59 30 -4 -27 35 -85 81
-85 67z"/>
<path d="M4370 1956 c-19 -13 -48 -36 -64 -51 l-30 -27 28 -15 c38 -20 49 -13
85 50 44 77 41 82 -19 43z"/>
<path d="M3030 1948 c0 -3 11 -18 25 -34 14 -16 35 -44 46 -61 26 -42 33 -42
26 2 -6 35 -33 78 -52 82 -6 1 -18 5 -27 8 -10 4 -18 5 -18 3z"/>
<path d="M4885 1913 c-54 -36 -98 -73 -88 -73 4 -1 -5 -11 -21 -24 -21 -18
-27 -29 -21 -45 12 -40 45 -20 117 68 87 108 90 126 13 74z"/>
<path d="M2533 1867 c-37 -25 -42 -37 -13 -37 12 0 26 12 35 30 9 17 14 30 13
29 -2 0 -18 -10 -35 -22z"/>
<path d="M2795 1857 c-29 -16 -41 -30 -43 -50 -5 -38 9 -34 57 18 58 63 54 71
-14 32z"/>
<path d="M2880 1862 c0 -9 67 -74 104 -101 35 -26 1 22 -48 67 -46 43 -56 49
-56 34z"/>
<path d="M3058 1813 c-19 -23 -29 -63 -16 -63 6 0 5 -7 -2 -15 -7 -9 -19 -14
-27 -11 -22 9 -103 -36 -109 -61 -7 -25 3 -46 17 -38 18 12 8 -8 -22 -43 -26
-29 -30 -31 -24 -12 l7 24 -33 -22 c-37 -23 -49 -42 -26 -42 9 0 22 -6 29 -12
33 -32 57 -17 145 89 26 32 64 61 103 81 33 17 58 27 55 22 -3 -5 17 -33 45
-61 34 -35 50 -61 50 -78 0 -14 5 -33 11 -41 8 -11 9 -6 5 20 l-6 34 38 -37
c28 -27 39 -47 40 -69 1 -37 12 -51 12 -15 0 34 3 34 44 -4 22 -20 32 -37 29
-49 -3 -10 0 -27 6 -37 9 -15 10 -12 5 13 -5 27 -3 31 15 29 12 -1 27 -8 34
-15 9 -11 8 -11 -8 0 -20 14 -20 14 -1 -7 10 -13 23 -20 27 -17 5 3 9 -2 9
-10 0 -8 11 -23 24 -34 14 -11 24 -27 22 -38 -2 -10 -1 -13 1 -6 7 19 21 15
45 -13 12 -14 27 -25 33 -25 17 0 14 23 -4 40 -13 13 -14 12 -8 -3 4 -11 3
-16 -3 -12 -6 3 -10 12 -10 19 0 14 -55 68 -170 166 -101 85 -248 228 -261
252 -5 10 -16 18 -24 18 -17 0 -20 26 -5 35 15 9 2 25 -21 25 -12 0 -17 4 -13
11 4 8 0 9 -15 4 -16 -5 -20 -3 -15 9 8 21 -9 20 -28 -1z m493 -470 c13 -16
12 -17 -3 -4 -17 13 -22 21 -14 21 2 0 10 -8 17 -17z"/>
<path d="M4294 1794 c-18 -15 -18 -15 5 -8 16 4 21 3 17 -5 -4 -6 -2 -11 3
-11 6 0 11 9 11 20 0 24 -10 25 -36 4z"/>
<path d="M1392 1755 c-10 -12 -10 -15 1 -15 15 0 82 -71 79 -83 -1 -5 2 -6 8
-2 10 6 -38 75 -52 75 -5 0 -8 9 -8 20 0 23 -10 25 -28 5z"/>
<path d="M2675 1705 l-30 -24 25 -1 c17 0 29 8 37 25 14 31 6 31 -32 0z"/>
<path d="M1150 1711 c0 -5 7 -15 17 -22 15 -13 15 -12 4 9 -12 23 -21 28 -21
13z"/>
<path d="M1085 1700 c-3 -5 -1 -10 4 -10 6 0 11 5 11 10 0 6 -2 10 -4 10 -3 0
-8 -4 -11 -10z"/>
<path d="M1300 1690 c0 -11 4 -20 9 -20 5 0 7 9 4 20 -3 11 -7 20 -9 20 -2 0
-4 -9 -4 -20z"/>
<path d="M4705 1679 c-22 -17 -53 -42 -68 -57 l-28 -27 22 -17 c30 -25 35 -23
63 20 22 33 61 113 54 111 -2 0 -21 -14 -43 -30z m-48 -95 c-3 -3 -12 -4 -19
-1 -8 3 -5 6 6 6 11 1 17 -2 13 -5z"/>
<path d="M1360 1693 c0 -5 5 -14 11 -20 15 -15 1 -56 -17 -49 -9 4 -12 2 -8
-5 4 -6 0 -15 -7 -20 -9 -6 -1 -9 26 -9 51 0 59 -6 76 -53 7 -21 19 -43 25
-48 19 -15 55 5 69 38 12 29 11 33 -12 55 -22 19 -25 20 -20 5 18 -50 17 -62
-9 -81 l-26 -19 7 31 c5 25 2 33 -14 42 -24 12 -28 30 -7 30 20 0 27 13 15 30
-8 13 -12 12 -27 -6 -13 -16 -23 -19 -40 -13 -28 11 -18 39 13 39 13 0 27 5
31 11 5 8 -3 10 -25 7 -20 -3 -31 0 -31 8 0 6 -7 17 -15 24 -8 7 -15 8 -15 3z"/>
<path d="M3131 1683 c0 -4 4 -17 9 -28 8 -19 9 -19 9 2 1 12 -3 25 -9 28 -5 3
-10 3 -9 -2z"/>
<path d="M3171 1655 c0 -11 4 -29 9 -40 l9 -20 0 20 c0 11 -4 29 -9 40 l-9 20
0 -20z"/>
<path d="M3211 1605 c1 -19 18 -51 18 -35 0 8 -4 22 -9 30 -5 8 -9 11 -9 5z"/>
<path d="M1370 1560 c0 -13 -10 -34 -22 -47 -24 -26 -14 -30 16 -8 25 19 28
19 54 -5 12 -12 22 -18 22 -15 0 14 -30 62 -49 79 -21 19 -21 19 -21 -4z"/>
<path d="M1173 1531 c-9 -24 -8 -29 3 -24 8 3 14 16 14 29 0 31 -3 30 -17 -5z"/>
<path d="M1298 1547 c-12 -29 -10 -63 3 -50 6 6 9 23 7 39 -2 24 -4 26 -10 11z"/>
<path d="M1111 1514 c0 -11 3 -14 6 -6 3 7 2 16 -1 19 -3 4 -6 -2 -5 -13z"/>
<path d="M3290 1523 c0 -5 5 -15 10 -23 8 -12 10 -11 10 8 0 12 -4 22 -10 22
-5 0 -10 -3 -10 -7z"/>
<path d="M4622 1517 c-9 -11 -10 -17 -2 -22 15 -9 23 -1 18 21 -3 15 -4 16
-16 1z"/>
<path d="M1090 1435 c-7 -8 -8 -15 -2 -15 5 0 15 7 22 15 7 8 8 15 2 15 -5 0
-15 -7 -22 -15z"/>
<path d="M1198 1443 c6 -2 18 -2 25 0 6 3 1 5 -13 5 -14 0 -19 -2 -12 -5z"/>
<path d="M3381 1424 c0 -11 3 -14 6 -6 3 7 2 16 -1 19 -3 4 -6 -2 -5 -13z"/>
<path d="M1324 1415 c30 -72 30 -73 17 -89 -10 -11 -18 -13 -31 -6 -14 8 -17
18 -13 49 6 47 -12 64 -21 18 -5 -25 -14 -36 -44 -50 l-37 -17 46 6 c34 4 48
2 58 -10 11 -13 11 -19 0 -32 -12 -15 -11 -16 9 -10 34 11 29 -27 -10 -63 -18
-17 -34 -29 -35 -27 -2 2 0 22 5 44 8 33 7 42 -5 46 -24 10 -39 7 -23 -4 13
-8 13 -13 -3 -41 -11 -20 -14 -36 -8 -47 9 -17 41 -26 41 -12 0 5 16 14 35 21
19 7 35 17 35 22 0 4 5 5 10 2 6 -3 10 -2 10 4 0 6 7 8 15 5 8 -4 15 -1 15 4
0 6 -9 14 -20 17 -11 3 -20 15 -20 26 0 12 7 19 20 19 11 0 20 -6 20 -14 0 -8
5 -18 10 -21 13 -8 42 14 34 26 -3 5 -1 9 5 9 15 0 22 32 13 65 l-8 30 -28
-41 c-20 -31 -32 -40 -46 -37 -18 5 -18 6 1 26 10 11 19 24 19 28 0 4 9 9 20
12 24 6 26 25 5 34 -9 3 -22 -2 -30 -13 -14 -18 -16 -18 -42 11 -18 20 -24 24
-19 10z"/>
<path d="M1160 1388 c0 -25 3 -29 10 -18 13 20 13 50 0 50 -5 0 -10 -15 -10
-32z"/>
<path d="M1510 1398 c-12 -8 -12 -9 2 -5 9 3 19 1 22 -6 3 -9 5 -9 5 0 1 18
-13 23 -29 11z"/>
<path d="M1472 1361 c21 -41 21 -49 -9 -91 l-18 -24 33 24 c40 30 44 75 9 108
-34 32 -39 27 -15 -17z"/>
<path d="M3460 1365 c0 -5 5 -17 10 -25 5 -8 10 -10 10 -5 0 6 -5 17 -10 25
-5 8 -10 11 -10 5z"/>
<path d="M1530 1329 c0 -5 5 -7 10 -4 6 3 10 8 10 11 0 2 -4 4 -10 4 -5 0 -10
-5 -10 -11z"/>
<path d="M3507 1309 c4 -13 8 -18 11 -10 2 7 -1 18 -6 23 -8 8 -9 4 -5 -13z"/>
<path d="M1088 1303 c6 -2 18 -2 25 0 6 3 1 5 -13 5 -14 0 -19 -2 -12 -5z"/>
<path d="M1036 1274 c-4 -9 -4 -19 -1 -22 2 -3 7 3 11 12 4 9 4 19 1 22 -2 3
-7 -3 -11 -12z"/>
<path d="M1112 1257 c-24 -25 -28 -37 -12 -37 5 0 16 14 25 30 19 36 16 38
-13 7z"/>
<path d="M3591 1255 c1 -19 18 -51 18 -35 0 8 -4 22 -9 30 -5 8 -9 11 -9 5z"/>
<path d="M3656 1241 c-3 -5 3 -16 13 -25 11 -10 16 -25 14 -40 -3 -13 -1 -26
5 -30 5 -3 7 6 4 21 -4 19 -1 24 9 21 8 -3 13 -11 12 -17 -2 -6 3 -11 10 -11
23 0 52 -40 49 -66 -2 -13 1 -24 6 -24 6 0 8 9 5 20 -6 23 2 26 21 8 8 -7 40
-35 72 -63 32 -27 72 -63 88 -78 16 -15 35 -26 43 -23 8 3 12 2 9 -3 -8 -12
19 -33 29 -23 4 4 3 -3 -3 -15 -7 -11 -37 -44 -69 -72 l-57 -51 41 -16 c32
-13 41 -21 38 -37 -3 -11 -6 -21 -7 -21 -2 -1 -23 -18 -48 -38 -25 -20 -64
-45 -88 -57 -72 -36 -40 -48 53 -20 63 19 265 183 265 215 0 20 -71 95 -123
130 -23 16 -47 35 -53 43 -6 8 -16 11 -22 7 -7 -4 -12 -2 -12 4 0 6 -15 25
-34 43 -51 47 -63 56 -70 50 -3 -4 -6 1 -6 10 0 10 -6 17 -13 17 -6 0 -25 16
-41 35 -16 19 -32 33 -36 30 -3 -2 -14 7 -24 21 -11 13 -25 24 -33 24 -8 0
-12 4 -9 8 2 4 -4 13 -14 20 -11 6 -21 8 -24 3z"/>
<path d="M3630 1213 c0 -4 5 -15 10 -23 8 -13 10 -13 10 2 0 9 -4 20 -10 23
-5 3 -10 3 -10 -2z"/>
<path d="M1043 1190 c1 -11 5 -20 9 -20 11 0 10 28 -1 35 -6 3 -9 -4 -8 -15z"/>
<path d="M1370 1175 c-19 -20 -30 -24 -59 -20 -36 5 -36 5 -6 -5 39 -13 66 -6
88 25 23 32 7 32 -23 0z"/>
<path d="M3727 1120 c3 -11 7 -20 9 -20 2 0 4 9 4 20 0 11 -4 20 -9 20 -5 0
-7 -9 -4 -20z"/>
<path d="M1325 1120 c-3 -5 -1 -10 4 -10 6 0 11 5 11 10 0 6 -2 10 -4 10 -3 0
-8 -4 -11 -10z"/>
<path d="M3811 1070 c0 -8 4 -24 9 -35 5 -13 9 -14 9 -5 0 8 -4 24 -9 35 -5
13 -9 14 -9 5z"/>
<path d="M3856 1005 c4 -8 8 -15 10 -15 2 0 4 7 4 15 0 8 -4 15 -10 15 -5 0
-7 -7 -4 -15z"/>
<path d="M1350 985 c0 -8 5 -15 10 -15 6 0 10 7 10 15 0 8 -4 15 -10 15 -5 0
-10 -7 -10 -15z"/>
<path d="M3900 978 c0 -9 5 -20 10 -23 13 -8 13 5 0 25 -8 13 -10 13 -10 -2z"/>
<path d="M3940 946 c0 -8 5 -18 10 -21 6 -3 10 1 10 9 0 8 -4 18 -10 21 -5 3
-10 -1 -10 -9z"/>
<path d="M1360 932 c0 -5 7 -17 15 -28 15 -19 20 -8 9 20 -6 17 -24 22 -24 8z"/>
<path d="M1415 850 c10 -11 23 -20 28 -20 6 0 2 9 -8 20 -10 11 -23 20 -28 20
-6 0 -2 -9 8 -20z"/>
<path d="M1460 810 c0 -9 32 -30 46 -30 4 0 -1 9 -11 20 -19 21 -35 26 -35 10z"/>
<path d="M2880 800 c0 -5 16 -10 35 -10 19 0 35 5 35 10 0 6 -16 10 -35 10
-19 0 -35 -4 -35 -10z"/>
<path d="M1544 755 c22 -17 36 -19 36 -6 0 10 -24 21 -43 21 -7 0 -3 -7 7 -15z"/>
<path d="M1760 670 c0 -79 3 -100 14 -100 10 0 13 12 10 50 -2 28 1 50 6 50 6
0 10 -12 10 -27 1 -75 34 -101 45 -35 11 66 13 68 14 15 1 -40 5 -53 16 -53
12 0 15 18 15 100 0 92 -2 100 -19 100 -13 0 -21 -9 -25 -27 -2 -16 -8 -46
-12 -68 l-7 -40 -9 45 c-17 88 -18 90 -38 90 -19 0 -20 -7 -20 -100z"/>
<path d="M1930 698 c-6 -40 -13 -85 -16 -100 -7 -33 20 -40 29 -8 3 11 13 20
22 20 9 0 19 -9 22 -20 8 -29 37 -26 30 3 -3 12 -11 57 -18 100 -11 70 -14 77
-34 77 -21 0 -24 -7 -35 -72z m44 -25 c5 -35 3 -43 -9 -43 -16 0 -19 28 -9 68
8 29 10 27 18 -25z"/>
<path d="M2040 744 c-13 -33 -13 -130 0 -155 23 -42 90 -16 90 35 0 9 -7 16
-15 16 -8 0 -15 -9 -15 -19 0 -26 -15 -34 -29 -17 -16 19 -10 138 6 144 7 2
17 -8 23 -23 11 -28 30 -26 30 4 0 25 -20 41 -52 41 -21 0 -31 -6 -38 -26z"/>
<path d="M2157 763 c-9 -8 -9 -156 -1 -177 8 -22 70 -22 78 0 11 27 6 54 -8
54 -8 0 -16 -9 -18 -20 -2 -12 -7 -22 -13 -23 -14 -3 -19 133 -5 147 8 8 12 5
16 -11 8 -28 34 -39 34 -14 0 38 -12 51 -44 51 -18 0 -36 -3 -39 -7z"/>
<path d="M2286 758 c-6 -18 -26 -153 -26 -172 0 -23 21 -20 27 4 3 11 14 20
24 20 12 0 19 -7 19 -20 0 -11 7 -20 15 -20 18 0 18 28 2 125 -11 60 -15 70
-35 73 -12 2 -24 -3 -26 -10z m34 -89 c0 -25 -4 -39 -11 -37 -6 2 -10 7 -10
11 1 4 1 23 1 43 0 21 4 33 10 29 6 -3 10 -24 10 -46z"/>
<path d="M2380 765 c0 -3 9 -23 20 -45 18 -34 18 -42 6 -72 -26 -63 -28 -78
-12 -78 8 0 20 16 26 35 6 19 16 35 21 35 5 0 9 -16 9 -35 0 -24 5 -35 15 -35
10 0 15 11 15 35 0 19 4 35 8 35 4 0 14 -16 21 -35 7 -19 19 -35 27 -35 17 0
18 -5 -6 57 -19 52 -19 53 0 98 24 57 3 64 -25 8 l-20 -38 -3 38 c-5 55 -32
50 -33 -5 l0 -43 -22 43 c-11 23 -27 42 -34 42 -7 0 -13 -2 -13 -5z"/>
<path d="M2570 670 c0 -82 3 -100 15 -100 11 0 15 12 15 45 0 38 3 45 20 45
17 0 20 -7 20 -45 0 -33 4 -45 15 -45 12 0 15 18 15 100 0 80 -3 100 -14 100
-10 0 -16 -14 -18 -42 -2 -31 -8 -44 -20 -46 -15 -3 -18 4 -18 42 0 34 -4 46
-15 46 -12 0 -15 -18 -15 -100z"/>
<path d="M2700 670 l0 -100 33 0 c42 0 57 15 57 60 0 40 -14 60 -42 60 -14 0
-18 8 -18 40 0 29 -4 40 -15 40 -12 0 -15 -18 -15 -100z m58 -38 c2 -24 -1
-32 -12 -32 -12 0 -16 10 -16 36 0 45 24 42 28 -4z"/>
<path d="M2810 670 c0 -82 3 -100 15 -100 12 0 15 18 15 100 0 82 -3 100 -15
100 -12 0 -15 -18 -15 -100z"/>
<path d="M2860 670 c0 -90 2 -100 18 -100 14 0 22 12 31 53 19 85 31 91 31 15
0 -39 4 -68 10 -68 6 0 10 40 10 100 0 91 -2 100 -19 100 -13 0 -22 -14 -33
-52 l-16 -53 -1 53 c-1 39 -5 52 -16 52 -12 0 -15 -18 -15 -100z"/>
<path d="M1605 730 c3 -5 13 -10 21 -10 8 0 12 5 9 10 -3 6 -13 10 -21 10 -8
0 -12 -4 -9 -10z"/>
<path d="M2180 375 c0 -63 4 -105 10 -105 6 0 10 25 10 56 0 34 4 53 10 49 6
-3 10 -17 10 -30 0 -13 5 -36 10 -51 15 -38 29 -20 38 47 l7 54 5 -58 c8 -93
25 -67 28 43 3 94 2 100 -17 100 -15 0 -22 -9 -27 -37 -3 -21 -9 -51 -13 -68
l-8 -30 -7 40 c-16 91 -17 95 -37 95 -18 0 -19 -8 -19 -105z"/>
<path d="M2352 471 c-8 -5 -13 -26 -12 -57 1 -27 -1 -68 -4 -91 -4 -33 -1 -43
10 -43 8 0 14 10 14 24 0 35 10 56 26 56 10 0 14 -12 14 -40 0 -29 4 -40 15
-40 12 0 15 18 15 100 l0 100 -32 0 c-18 0 -39 -4 -46 -9z m48 -51 c0 -20 -5
-30 -15 -30 -10 0 -15 10 -15 30 0 20 5 30 15 30 10 0 15 -10 15 -30z"/>
<path d="M2450 427 c0 -55 12 -77 42 -77 14 0 18 -8 18 -34 0 -21 6 -36 15
-40 13 -5 15 10 15 100 0 80 -3 105 -12 102 -7 -3 -14 -25 -16 -51 -2 -33 -7
-47 -18 -47 -10 0 -14 13 -14 50 0 38 -4 50 -15 50 -11 0 -15 -13 -15 -53z"/>
</g>
</svg>
