<?xml version="1.0" standalone="no"?>
<!DOCTYPE svg PUBLIC "-//W3C//DTD SVG 20010904//EN"
 "http://www.w3.org/TR/2001/REC-SVG-20010904/DTD/svg10.dtd">
<svg version="1.0" xmlns="http://www.w3.org/2000/svg"
 width="758.000000pt" height="758.000000pt" viewBox="0 0 758.000000 758.000000"
 preserveAspectRatio="xMidYMid meet">
<metadata>
Created by potrace 1.14, written by Peter Selinger 2001-2017
</metadata>
<g transform="translate(0.000000,758.000000) scale(0.100000,-0.100000)"
fill="#000000" stroke="none">
<path d="M5175 4896 c-5 -2 -50 -16 -100 -31 -133 -40 -275 -135 -275 -184 0
-24 55 -21 206 10 208 43 307 44 414 4 77 -28 175 -89 244 -150 33 -29 37 -37
26 -50 -17 -21 -54 -19 -75 5 -18 20 -45 27 -45 11 0 -4 5 -22 11 -40 10 -27
8 -35 -7 -52 -38 -42 -56 -44 -81 -13 -13 16 -23 39 -23 51 0 13 -12 28 -35
42 l-35 20 6 -24 c5 -19 0 -26 -26 -40 -25 -13 -35 -14 -46 -4 -31 26 -6 71
49 84 17 5 27 14 27 26 0 19 -1 19 -37 3 -21 -9 -49 -17 -62 -18 -24 -1 -30 6
-50 57 -8 19 -18 27 -36 27 -30 0 -32 -16 -8 -85 16 -48 16 -49 -7 -67 -12
-10 -26 -18 -31 -18 -5 0 -25 24 -44 54 -58 92 -80 90 -41 -3 30 -70 32 -84
11 -101 -26 -21 -18 -38 17 -36 26 1 35 -4 46 -27 12 -25 12 -31 -2 -46 -9
-10 -16 -25 -16 -35 0 -14 6 -16 30 -11 26 6 31 3 40 -20 10 -26 6 -32 -66
-101 -67 -65 -84 -94 -53 -94 5 0 40 23 78 50 38 28 71 50 75 50 7 0 56 -96
56 -110 0 -13 -51 -59 -66 -60 -5 0 -23 14 -39 30 -46 48 -59 41 -51 -29 l7
-59 -51 -36 c-27 -20 -54 -36 -59 -36 -5 0 -21 -17 -37 -37 -16 -21 -34 -44
-42 -52 -16 -16 -10 -38 9 -32 42 12 53 6 71 -42 16 -44 17 -49 1 -81 -21 -45
-12 -70 25 -63 24 5 35 -3 89 -62 75 -82 107 -93 186 -59 l50 22 31 -40 c51
-65 74 -84 90 -78 22 8 21 83 -1 146 l-18 49 25 19 c33 26 42 21 58 -26 22
-67 42 -103 78 -139 37 -37 55 -43 72 -22 17 20 -9 93 -57 162 -23 32 -41 68
-41 80 0 38 36 60 99 60 l56 0 0 47 c0 39 5 52 33 80 38 40 42 63 10 54 -77
-22 -83 -21 -116 30 -18 26 -32 53 -32 60 0 24 20 25 46 5 26 -21 64 -28 64
-13 0 4 -7 28 -17 54 l-16 46 31 40 c53 67 40 94 -33 67 -53 -21 -69 -16 -90
26 -16 30 -16 32 6 55 12 13 26 24 30 24 4 0 23 -16 42 -35 35 -35 57 -44 57
-24 0 5 -16 40 -35 76 -19 36 -35 70 -35 76 0 5 -13 25 -30 44 -36 41 -38 62
-6 93 32 29 45 23 95 -40 49 -62 92 -151 117 -245 27 -100 27 -387 0 -535 -11
-58 -23 -107 -27 -110 -7 -5 -75 -200 -81 -234 -2 -13 -28 -33 -73 -55 -51
-27 -70 -41 -70 -56 0 -28 53 -25 95 5 17 12 35 19 39 14 5 -5 16 -33 25 -63
20 -64 58 -116 98 -137 31 -16 36 -35 13 -54 -11 -9 -26 0 -82 52 -37 35 -90
77 -118 94 -27 17 -86 53 -130 80 -88 54 -234 123 -317 149 -29 9 -124 49
-212 88 -127 58 -169 82 -215 125 -31 28 -59 52 -62 52 -3 0 -11 -11 -17 -25
-15 -33 7 -79 74 -156 174 -198 303 -270 564 -318 116 -22 206 -46 315 -84 49
-17 75 -36 147 -107 51 -50 93 -101 100 -120 6 -19 24 -53 40 -76 39 -58 137
-251 210 -414 66 -147 81 -172 135 -212 51 -39 127 -39 198 0 l50 27 7 83 c6
79 5 87 -21 135 -54 100 -122 185 -271 343 -145 153 -184 183 -196 151 -3 -8
35 -82 87 -168 86 -146 179 -325 179 -348 0 -19 -22 -12 -44 15 -20 25 -55 84
-107 179 -26 48 -60 95 -109 151 -139 159 -144 171 -82 203 42 21 60 49 66 99
3 26 -3 38 -26 60 -25 24 -28 32 -24 67 4 23 -1 63 -10 95 -8 30 -20 71 -26
90 -48 168 -59 325 -33 496 21 142 20 359 -4 470 -20 97 -89 280 -124 328 -28
40 -188 193 -252 242 -54 41 -172 95 -220 101 -56 6 -220 13 -230 9z m91 -471
c16 -24 16 -27 -1 -45 -24 -27 -39 -25 -56 6 -12 24 -12 28 10 45 29 24 27 24
47 -6z m194 -35 l20 -39 -26 -17 c-25 -17 -26 -16 -50 9 -28 31 -30 44 -7 69
25 27 41 22 63 -22z m177 -45 c16 -34 16 -36 -3 -50 -29 -22 -57 -17 -78 12
l-19 26 27 24 c37 32 53 29 73 -12z m-302 -32 c17 -26 17 -27 -5 -45 -30 -24
-52 -19 -64 14 -19 54 38 80 69 31z m183 -38 c16 -35 15 -52 -4 -59 -25 -10
-29 -8 -47 23 -16 27 -16 31 -1 45 22 23 39 20 52 -9z m-108 -77 c25 -42 25
-53 -2 -78 -31 -28 -40 -25 -66 22 l-22 41 22 24 c29 31 45 29 68 -9z m200
-110 c25 -41 25 -58 1 -58 -19 0 -51 48 -51 77 0 25 30 13 50 -19z m-105 -68
c22 -42 19 -65 -10 -78 -34 -16 -30 -17 -54 24 -26 43 -26 53 -3 70 28 21 50
16 67 -16z m-145 -82 c26 -43 25 -54 -6 -75 -30 -19 -50 -11 -74 31 -14 25
-14 27 15 51 17 13 33 24 38 25 4 0 16 -15 27 -32z m-153 -126 c13 -32 12 -34
-22 -68 -19 -19 -39 -34 -44 -34 -5 0 -19 16 -32 36 l-22 36 39 34 c47 40 63
40 81 -4z m410 -27 c16 -30 19 -43 11 -53 -18 -21 -51 -9 -71 26 -19 32 -19
34 -1 53 23 26 34 21 61 -26z m-128 -97 c12 -32 -21 -68 -47 -52 -22 14 -27
41 -12 59 18 22 49 18 59 -7z m-166 -121 l20 -38 -34 -35 c-18 -19 -37 -33
-42 -31 -9 3 -47 92 -47 109 0 11 53 38 69 35 8 -1 23 -19 34 -40z"/>
<path d="M4583 4628 c-22 -3 -78 -24 -124 -46 -46 -22 -99 -46 -117 -53 -57
-21 -156 -128 -195 -210 -71 -149 -79 -178 -75 -248 5 -89 40 -161 114 -236
72 -74 83 -82 173 -135 169 -98 337 -67 482 88 76 81 104 130 165 287 35 90
39 109 38 186 0 74 -4 93 -27 131 -54 92 -144 175 -246 228 -39 19 -104 22
-188 8z m-16 -193 c88 -18 115 -28 132 -49 12 -14 8 -21 -31 -56 -60 -52 -78
-93 -85 -195 -7 -100 9 -152 63 -211 57 -63 47 -69 -68 -40 -48 12 -90 25 -94
29 -4 4 -18 7 -30 7 -28 0 -94 30 -94 43 0 5 12 23 27 41 40 47 91 162 98 220
6 48 1 81 -30 183 -6 18 -2 25 16 32 13 5 24 10 24 10 0 1 32 -6 72 -14z
m-157 -67 c28 -59 26 -126 -6 -190 -31 -62 -101 -158 -114 -158 -5 0 -21 17
-35 37 -56 83 -16 266 72 331 42 32 60 28 83 -20z m473 -40 c41 -56 57 -103
57 -167 0 -49 -6 -70 -30 -111 -16 -28 -30 -54 -30 -58 0 -5 -15 -23 -34 -41
-36 -35 -66 -37 -66 -4 -1 10 -14 56 -30 103 -45 129 -40 194 21 271 40 51 78
53 112 7z"/>
<path d="M2823 3860 c-40 -16 -43 -38 -43 -309 0 -248 1 -262 20 -281 26 -26
80 -26 111 -1 24 19 24 20 27 279 3 259 3 260 -20 286 -26 29 -63 39 -95 26z"/>
<path d="M3075 3859 c-54 -16 -55 -21 -55 -304 0 -260 0 -262 23 -283 32 -30
81 -29 112 2 20 20 27 22 38 12 22 -22 87 -39 133 -33 89 10 152 82 161 185 9
99 -28 181 -98 217 -43 23 -145 20 -180 -6 l-29 -20 0 85 c0 95 -11 129 -47
145 -13 6 -25 11 -26 10 -1 0 -15 -5 -32 -10z m238 -331 c25 -30 23 -105 -5
-135 -24 -26 -73 -30 -101 -9 -35 27 -43 108 -13 145 27 34 88 34 119 -1z"/>
<path d="M3615 3859 c-54 -15 -55 -21 -55 -306 0 -250 1 -264 20 -283 26 -26
80 -26 111 -1 l24 19 0 265 c0 242 -2 267 -18 285 -23 25 -44 31 -82 21z"/>
<path d="M2016 3838 c-13 -19 -16 -58 -16 -223 0 -232 -4 -245 -71 -245 -41 0
-79 -26 -79 -55 0 -9 11 -27 25 -40 20 -21 34 -25 87 -25 84 0 144 29 175 85
22 38 23 51 23 256 0 204 -1 218 -21 243 -28 35 -100 38 -123 4z"/>
<path d="M2275 3653 c-14 -14 -16 -37 -13 -169 3 -147 4 -153 28 -179 54 -58
133 -72 204 -35 39 19 39 19 64 0 32 -26 73 -25 106 1 l26 20 0 168 c0 200 -4
211 -80 211 -72 0 -80 -17 -80 -157 0 -104 -2 -113 -22 -127 -30 -21 -61 -20
-81 2 -14 15 -17 41 -17 135 0 92 -3 119 -16 131 -21 22 -97 21 -119 -1z"/>
<path d="M1861 2826 c-10 -12 -9 -24 4 -63 40 -118 44 -148 29 -213 -15 -64
-13 -80 11 -80 20 0 33 28 41 88 5 43 18 66 75 142 64 84 87 138 57 128 -7 -3
-39 -38 -70 -79 -32 -41 -61 -73 -65 -72 -5 1 -18 34 -30 74 -25 82 -35 96
-52 75z"/>
<path d="M4212 2831 c-23 -14 -10 -46 19 -49 32 -4 45 21 23 43 -18 17 -24 18
-42 6z"/>
<path d="M3716 2818 c-3 -7 -7 -26 -11 -43 -8 -35 -20 -45 -58 -45 -15 0 -41
-7 -57 -15 -63 -32 -96 -159 -57 -218 17 -27 21 -27 95 -25 l76 3 13 90 c6 50
19 119 27 155 22 90 21 110 -4 110 -11 0 -22 -6 -24 -12z m-34 -139 c7 -22
-20 -131 -38 -150 -26 -28 -62 -25 -75 8 -24 65 22 153 80 153 16 0 31 -5 33
-11z"/>
<path d="M5013 2818 c-6 -7 -16 -40 -22 -73 -7 -33 -18 -87 -26 -120 -28 -121
-20 -165 31 -165 32 0 39 17 15 38 -20 16 -20 20 -6 97 8 44 22 108 31 143 15
56 16 65 2 78 -12 12 -17 13 -25 2z"/>
<path d="M4875 2808 c-12 -35 -37 -146 -50 -220 -12 -73 -12 -85 1 -105 10
-15 24 -23 44 -23 35 0 40 19 9 38 -24 15 -23 32 17 200 14 56 22 107 19 112
-9 14 -35 12 -40 -2z"/>
<path d="M4312 2778 c-7 -7 -12 -18 -12 -25 0 -20 -38 -34 -75 -27 -19 3 -35
3 -35 0 0 -4 -11 -58 -25 -122 -14 -64 -23 -120 -19 -125 3 -5 13 -9 23 -9 15
0 22 20 41 115 23 112 30 124 59 106 11 -7 11 -18 2 -60 -16 -74 -14 -146 4
-161 18 -15 81 -5 88 14 7 18 -1 26 -29 26 -31 0 -33 6 -23 75 13 84 23 103
56 107 34 4 38 32 6 36 -15 2 -23 11 -25 29 -3 30 -18 39 -36 21z"/>
<path d="M2985 2738 c-111 -39 -169 -219 -85 -263 30 -16 56 -14 88 6 17 11
25 11 46 0 21 -12 30 -12 58 2 29 14 33 14 44 -1 20 -27 34 -4 52 84 15 70 21
81 51 101 52 35 66 28 65 -35 -1 -28 -9 -70 -18 -92 -17 -44 -12 -73 13 -68
20 4 50 92 58 168 4 47 2 58 -15 74 -17 14 -30 17 -64 12 -24 -4 -57 -7 -73
-6 -28 0 -32 -4 -43 -45 -7 -25 -12 -60 -12 -78 0 -63 -8 -75 -51 -75 -37 -1
-39 1 -39 31 1 18 7 60 14 94 10 47 11 66 2 77 -15 21 -55 27 -91 14z m47 -77
c-4 -40 -44 -135 -61 -146 -7 -4 -23 -4 -35 -1 -34 8 -39 50 -14 109 24 55 52
79 88 75 22 -3 25 -7 22 -37z"/>
<path d="M4655 2731 c-49 -23 -77 -53 -98 -109 -23 -58 -21 -96 6 -128 26 -29
64 -35 103 -14 19 11 28 11 48 1 19 -11 29 -11 52 0 40 20 42 39 4 39 l-32 0
5 53 c4 28 9 75 13 102 6 48 5 51 -20 63 -34 15 -33 15 -81 -7z m61 -45 c7
-17 -33 -136 -53 -158 -35 -39 -77 -11 -75 49 2 59 54 122 100 123 12 0 25 -6
28 -14z"/>
<path d="M2754 2721 c-83 -51 -120 -185 -64 -236 37 -34 140 -27 140 10 0 11
-12 15 -48 15 -26 0 -53 5 -60 12 -29 29 -1 137 42 160 11 6 35 11 53 10 37
-2 50 12 33 33 -17 21 -59 19 -96 -4z"/>
<path d="M2115 2718 c-54 -31 -79 -85 -73 -156 4 -45 10 -60 32 -79 48 -41
110 -24 156 44 31 45 34 134 7 176 -14 22 -25 27 -60 27 -23 0 -51 -6 -62 -12z
m89 -59 c13 -39 -2 -98 -34 -131 -33 -32 -42 -34 -64 -12 -33 32 -12 138 31
163 28 17 57 8 67 -20z"/>
<path d="M2310 2706 c-20 -53 -34 -185 -22 -211 15 -33 55 -42 99 -21 25 12
39 14 48 6 9 -7 15 -7 22 2 12 16 48 237 40 245 -18 17 -36 -12 -47 -74 -6
-37 -14 -76 -16 -85 -6 -20 -64 -58 -88 -58 -21 0 -21 51 0 132 8 33 13 67 10
74 -9 22 -36 16 -46 -10z"/>
<path d="M3831 2716 c-68 -37 -95 -167 -47 -223 48 -55 135 -29 176 53 33 66
20 161 -25 178 -27 10 -78 6 -104 -8z m89 -45 c24 -47 -3 -136 -50 -161 -24
-13 -26 -13 -44 6 -20 20 -21 86 -1 124 26 50 76 66 95 31z"/>
</g>
</svg>
